<?xml version="1.0" encoding="UTF-8"?>
<svg version="1.1" xmlns="http://www.w3.org/2000/svg" width="50" height="50">
<path d="M0 0 C6.21022081 3.77380156 11.12756342 9.38269026 13.4375 16.3125 C14.06027571 24.34732765 14.41847862 31.64415403 9.4375 38.3125 C4.85388456 43.61984419 -0.46283458 47.99473686 -7.63671875 48.55078125 C-16.8461929 48.73994883 -22.33912774 47.95995786 -29.3125 41.9375 C-35.62744532 34.57006379 -36.92244811 29.37808317 -36.84375 19.8359375 C-36.26602578 12.59833686 -33.0249729 7.99461963 -27.5625 3.3125 C-19.66584559 -2.37309117 -9.18150824 -4.36209587 0 0 Z " fill="#F1A62B" transform="translate(36.5625,1.6875)"/>
<path d="M0 0 C0.7425 0.185625 1.485 0.37125 2.25 0.5625 C2.8275 0.706875 3.405 0.85125 4 1 C4 1.66 4 2.32 4 3 C4.66 3 5.32 3 6 3 C6.144375 3.61875 6.28875 4.2375 6.4375 4.875 C6.93152225 7.03258322 6.93152225 7.03258322 8 9 C8.04022391 11.3329866 8.04320247 13.66706666 8 16 C5.92885326 13.36399506 4.52475697 11.04951395 3 8 C-4.92 8.495 -4.92 8.495 -13 9 C-12.67 14.28 -12.34 19.56 -12 25 C-10.35 25.33 -8.7 25.66 -7 26 C-6.67 24.35 -6.34 22.7 -6 21 C-7.98 20.67 -9.96 20.34 -12 20 C-12 19.34 -12 18.68 -12 18 C-9.03 17.67 -6.06 17.34 -3 17 C-2.87625 18.918125 -2.87625 18.918125 -2.75 20.875 C-2.54130069 23.05333418 -2.54130069 23.05333418 -2 25 C-0.07935207 26.5899433 -0.07935207 26.5899433 2 27 C1.01 29.475 1.01 29.475 0 32 C-1.32 31.67 -2.64 31.34 -4 31 C-3.67 31.99 -3.34 32.98 -3 34 C-1.02 34.33 0.96 34.66 3 35 C2.67 35.66 2.34 36.32 2 37 C3.65 36.01 5.3 35.02 7 34 C6.42655063 36.86724686 6.1385485 37.8614515 4 40 C4.33 40.66 4.66 41.32 5 42 C2.68906305 44.95799929 1.51778026 45.9203415 -2.25 46.5 C-9.35773219 45.55230237 -14.2961889 42.41650975 -19 37 C-19.33 36.34 -19.66 35.68 -20 35 C-18.70990357 34.49596232 -17.41786211 33.99690074 -16.125 33.5 C-15.40570312 33.2215625 -14.68640625 32.943125 -13.9453125 32.65625 C-12 32 -12 32 -10 32 C-10.52400391 31.26910156 -10.52400391 31.26910156 -11.05859375 30.5234375 C-15.42651024 23.71790189 -16.51252861 17.04275667 -16 9 C-14.64641037 4.90915133 -11.66533726 2.176294 -8 0 C-4.93995141 -1.14751822 -3.08656568 -0.96455177 0 0 Z " fill="#76411C" transform="translate(24,4)"/>
<path d="M0 0 C1.66655537 1.97741544 2.85473502 3.96134891 4.0546875 6.25 C4.36664062 6.8275 4.67859375 7.405 5 8 C5.33 8 5.66 8 6 8 C6.39590347 15.39019811 5.12767046 20.8084943 1 27 C-1.625 27.1875 -1.625 27.1875 -4 27 C-4.33 26.34 -4.66 25.68 -5 25 C-4.34 24.67 -3.68 24.34 -3 24 C-3.66 23.34 -4.32 22.68 -5 22 C-4.34 21.34 -3.68 20.68 -3 20 C-3.99 19.34 -4.98 18.68 -6 18 C-6.40843923 15.28796348 -6.13336867 12.7562858 -6 10 C-10.455 10.495 -10.455 10.495 -15 11 C-15 11.66 -15 12.32 -15 13 C-13.02 13 -11.04 13 -9 13 C-8.3125 14.8125 -8.3125 14.8125 -8 17 C-9.4375 18.75 -9.4375 18.75 -11 20 C-12.9375 19.1875 -12.9375 19.1875 -15 18 C-16.14077657 14.57767028 -16.09815117 11.91326783 -16.0625 8.3125 C-16.05347656 7.13300781 -16.04445313 5.95351563 -16.03515625 4.73828125 C-16.02355469 3.83464844 -16.01195312 2.93101563 -16 2 C-4.62380301 -0.88919289 -4.62380301 -0.88919289 0 0 Z " fill="#F3BC8E" transform="translate(27,11)"/>
<path d="M0 0 C0.66 0 1.32 0 2 0 C2 0.66 2 1.32 2 2 C2.66 2.33 3.32 2.66 4 3 C2.7934375 4.175625 2.7934375 4.175625 1.5625 5.375 C-1.66823313 8.63449474 -1.66823313 8.63449474 -2.01953125 13.01171875 C-1.61698871 20.15874764 -1.14352314 25.11887038 3 31 C3 31.66 3 32.32 3 33 C1.73160474 33.50615298 0.46016898 34.00469099 -0.8125 34.5 C-1.52019531 34.7784375 -2.22789063 35.056875 -2.95703125 35.34375 C-5 36 -5 36 -8 36 C-11.81392662 29.32562841 -11.78380774 22.54197221 -11 15 C-9.39605604 9.46380632 -6.2771108 5.82688861 -2 2 C-1.34 1.34 -0.68 0.68 0 0 Z " fill="#D6821C" transform="translate(11,3)"/>
<path d="M0 0 C6.93 2.97 6.93 2.97 14 6 C13 10 13 10 11.2578125 11.44921875 C10.20207031 12.06216797 10.20207031 12.06216797 9.125 12.6875 C8.42632812 13.10386719 7.72765625 13.52023438 7.0078125 13.94921875 C2.91529596 16.09102216 -0.4485105 16.08587716 -5 16 C-3.90931332 12.22454612 -3.0916909 9.52956528 0 7 C-0.33 6.67 -0.66 6.34 -1 6 C-1.99 6.66 -2.98 7.32 -4 8 C-4.99 7.67 -5.98 7.34 -7 7 C-6.34 6.67 -5.68 6.34 -5 6 C-7.475 5.01 -7.475 5.01 -10 4 C-10 3.01 -10 2.02 -10 1 C-9.01 1.33 -8.02 1.66 -7 2 C-7 2.33 -7 2.66 -7 3 C-4.58380177 3.25030977 -4.58380177 3.25030977 -2 3 C-1.34 2.01 -0.68 1.02 0 0 Z " fill="#B7723D" transform="translate(30,34)"/>
<path d="M0 0 C0.7425 0.185625 1.485 0.37125 2.25 0.5625 C2.8275 0.706875 3.405 0.85125 4 1 C4 1.66 4 2.32 4 3 C4.66 3 5.32 3 6 3 C6.144375 3.61875 6.28875 4.2375 6.4375 4.875 C6.93152225 7.03258322 6.93152225 7.03258322 8 9 C8.04022391 11.3329866 8.04320247 13.66706666 8 16 C5.92885326 13.36399506 4.52475697 11.04951395 3 8 C-4.92 8.495 -4.92 8.495 -13 9 C-13 11.64 -13 14.28 -13 17 C-13.66 17.33 -14.32 17.66 -15 18 C-16.5547669 14.89046621 -16.28644437 12.43733239 -16 9 C-13.53529021 4.42268181 -10.93334728 1.10000523 -6 -0.75 C-3.69159546 -1.03855057 -2.21158364 -0.69111989 0 0 Z " fill="#502B15" transform="translate(24,4)"/>
<path d="M0 0 C0 1.32 0 2.64 0 4 C0.99 4 1.98 4 3 4 C3.33 4.99 3.66 5.98 4 7 C7.3 7 10.6 7 14 7 C14 7.99 14 8.98 14 10 C11.69 10 9.38 10 7 10 C7 12.31 7 14.62 7 17 C6.67 17 6.34 17 6 17 C6 14.36 6 11.72 6 9 C1.545 9.495 1.545 9.495 -3 10 C-3 10.66 -3 11.32 -3 12 C-1.02 12 0.96 12 3 12 C3.6875 13.8125 3.6875 13.8125 4 16 C2.5625 17.75 2.5625 17.75 1 19 C-0.9375 18.1875 -0.9375 18.1875 -3 17 C-4.14077657 13.57767028 -4.09815117 10.91326783 -4.0625 7.3125 C-4.05347656 6.13300781 -4.04445313 4.95351563 -4.03515625 3.73828125 C-4.02355469 2.83464844 -4.01195312 1.93101563 -4 1 C-2 0 -2 0 0 0 Z " fill="#8B5238" transform="translate(15,12)"/>
<path d="M0 0 C0.33 0 0.66 0 1 0 C1.33 2.64 1.66 5.28 2 8 C3.65 8.33 5.3 8.66 7 9 C7.33 7.35 7.66 5.7 8 4 C5.03 3.505 5.03 3.505 2 3 C2 2.34 2 1.68 2 1 C6.455 0.505 6.455 0.505 11 0 C11.12375 1.918125 11.12375 1.918125 11.25 3.875 C11.45869931 6.05333418 11.45869931 6.05333418 12 8 C13.92064793 9.5899433 13.92064793 9.5899433 16 10 C15.34 11.65 14.68 13.3 14 15 C12.68 14.67 11.36 14.34 10 14 C10 14.66 10 15.32 10 16 C5.73327616 15.52591957 3.7544952 13.11692878 1 10 C-1.00456109 6.94543073 -1.29458763 4.63324738 -1 1 C-0.67 0.67 -0.34 0.34 0 0 Z " fill="#7F442F" transform="translate(10,21)"/>
<path d="M0 0 C0.59732819 2.76264289 1 5.16032769 1 8 C-3.455 8.495 -3.455 8.495 -8 9 C-8.33 7.68 -8.66 6.36 -9 5 C-9.99 5 -10.98 5 -12 5 C-12 3.68 -12 2.36 -12 1 C-7.9472484 0.01751476 -4.16138263 -0.08159574 0 0 Z " fill="#FBD1AA" transform="translate(27,11)"/>
<path d="M0 0 C-0.99 0.495 -0.99 0.495 -2 1 C-2 2.65 -2 4.3 -2 6 C-4.97 5.505 -4.97 5.505 -8 5 C-8 5.99 -8 6.98 -8 8 C-9.32 8.33 -10.64 8.66 -12 9 C-12 11.64 -12 14.28 -12 17 C-12.66 17.33 -13.32 17.66 -14 18 C-15.5547669 14.89046621 -15.28644437 12.43733239 -15 9 C-12.5242496 4.40217782 -9.91511791 1.06004288 -4.9375 -0.75 C-3 -1 -3 -1 0 0 Z " fill="#351A0D" transform="translate(23,4)"/>
<path d="M0 0 C1.03125 0.639375 2.0625 1.27875 3.125 1.9375 C6.38609658 3.81711371 9.22046944 4.63126531 13 5 C12.34 5.66 11.68 6.32 11 7 C7.875 6.625 7.875 6.625 5 6 C5.66 6.66 6.32 7.32 7 8 C3.25 11 3.25 11 1 11 C0.7525 10.38125 0.505 9.7625 0.25 9.125 C-1.20628639 6.64931313 -2.37812506 6.04874998 -5 5 C-3.625 3.5 -3.625 3.5 -2 2 C-1.34 2 -0.68 2 0 2 C0 1.34 0 0.68 0 0 Z " fill="#451E08" transform="translate(14,34)"/>
<path d="M0 0 C1.65 0 3.3 0 5 0 C5.75 1.5625 5.75 1.5625 6 4 C4.86915563 6.50286409 3.47860484 8.67007722 2 11 C0.35 11 -1.3 11 -3 11 C-3.33 10.34 -3.66 9.68 -4 9 C-3.34 8.67 -2.68 8.34 -2 8 C-2.66 7.34 -3.32 6.68 -4 6 C-2.35 4.68 -0.7 3.36 1 2 C0.67 1.34 0.34 0.68 0 0 Z " fill="#E9A77D" transform="translate(26,27)"/>
<path d="M0 0 C0.33 0.99 0.66 1.98 1 3 C1.99 3 2.98 3 4 3 C4.33 3.99 4.66 4.98 5 6 C8.3 6 11.6 6 15 6 C15 6.99 15 7.98 15 9 C12.69 9 10.38 9 8 9 C8 11.31 8 13.62 8 16 C7.67 16 7.34 16 7 16 C7 13.36 7 10.72 7 8 C4.69 8 2.38 8 0 8 C0 5.36 0 2.72 0 0 Z " fill="#CC8A66" transform="translate(14,13)"/>
<path d="M0 0 C0.93423645 3.01031744 1.04449911 3.86650268 0 7 C2.97 7.495 2.97 7.495 6 8 C3.13700494 10.86299506 1.34147716 10.99421225 -2.6875 11.0625 C-3.780625 11.041875 -4.87375 11.02125 -6 11 C-4.74194623 6.49197399 -3.09592835 3.5087188 0 0 Z " fill="#A46535" transform="translate(31,39)"/>
<path d="M0 0 C0.33 0.66 0.66 1.32 1 2 C-1.31 2 -3.62 2 -6 2 C-6 4.42797311 -5.49914315 6.62907005 -5 9 C-6.32 8.67 -7.64 8.34 -9 8 C-9 7.01 -9 6.02 -9 5 C-9.99 5 -10.98 5 -12 5 C-12 3.68 -12 2.36 -12 1 C-7.9472484 0.01751476 -4.16138263 -0.08159574 0 0 Z " fill="#EEB58A" transform="translate(27,11)"/>
<path d="M0 0 C0.33 0 0.66 0 1 0 C1.33 2.64 1.66 5.28 2 8 C2.99 8.33 3.98 8.66 5 9 C6.04892238 10.63631892 7.04906703 12.30485863 8 14 C8.66 14.66 9.32 15.32 10 16 C5.73327616 15.52591957 3.7544952 13.11692878 1 10 C-1.00456109 6.94543073 -1.29458763 4.63324738 -1 1 C-0.67 0.67 -0.34 0.34 0 0 Z " fill="#693520" transform="translate(10,21)"/>
<path d="M0 0 C4.29 0.33 8.58 0.66 13 1 C12.67 1.99 12.34 2.98 12 4 C7.45194365 4.17835515 4.1205746 3.99785435 0 2 C0 1.34 0 0.68 0 0 Z " fill="#874E26" transform="translate(13,46)"/>
<path d="M0 0 C0.33 0.99 0.66 1.98 1 3 C0.01 3.99 -0.98 4.98 -2 6 C-1.67 6.66 -1.34 7.32 -1 8 C-4.69418201 9.231394 -7.2056261 8.64432764 -11 8 C-8.702779 6.25728062 -6.40133271 4.60088848 -4 3 C-2.66209359 2.00612666 -1.32781878 1.0073108 0 0 Z " fill="#81491F" transform="translate(30,38)"/>
<path d="M0 0 C0 2.64 0 5.28 0 8 C-0.66 8 -1.32 8 -2 8 C-2.33 6.68 -2.66 5.36 -3 4 C-5.97 3.505 -5.97 3.505 -9 3 C-9 2.34 -9 1.68 -9 1 C-5.92677456 0.08941469 -3.19902639 -0.08886184 0 0 Z " fill="#7B442F" transform="translate(21,21)"/>
<path d="M0 0 C0.33 0 0.66 0 1 0 C0.88655624 2.1464753 0.75893655 4.29220592 0.625 6.4375 C0.52058594 8.22994141 0.52058594 8.22994141 0.4140625 10.05859375 C0.27742187 11.02925781 0.14078125 11.99992187 0 13 C-0.99 13.495 -0.99 13.495 -2 14 C-3.53214888 10.93570224 -3.22938548 8.3834358 -3 5 C-1.5625 2.0625 -1.5625 2.0625 0 0 Z " fill="#260B03" transform="translate(11,8)"/>
<path d="M0 0 C3.37503669 1.1858237 5.64722731 2.27573689 8 5 C7.67 5.66 7.34 6.32 7 7 C7.99 7.66 8.98 8.32 10 9 C7.36 9 4.72 9 2 9 C1.67 8.01 1.34 7.02 1 6 C1.66 5.34 2.32 4.68 3 4 C2.01 2.68 1.02 1.36 0 0 Z " fill="#5C3012" transform="translate(16,38)"/>
<path d="M0 0 C1.32 0 2.64 0 4 0 C4 1.32 4 2.64 4 4 C4.93283296 6.20067421 4.93283296 6.20067421 6 8 C4.02 8 2.04 8 0 8 C0 5.36 0 2.72 0 0 Z " fill="#F0AC84" transform="translate(22,22)"/>
<path d="M0 0 C1.65 0 3.3 0 5 0 C5.93065133 2.60582371 6.14917407 3.64198224 5.0625 6.25 C4.5365625 7.11625 4.5365625 7.11625 4 8 C3.566875 7.505 3.13375 7.01 2.6875 6.5 C1.00259517 4.66781808 1.00259517 4.66781808 -2 5 C-1.01 4.01 -0.02 3.02 1 2 C0.67 1.34 0.34 0.68 0 0 Z " fill="#E09E72" transform="translate(26,27)"/>
<path d="M0 0 C2.37945265 4.75890529 3.10095578 7.54838765 3 13 C0.68222713 10.15546057 -0.89118681 7.51124178 -2 4 C-1.67 3.34 -1.34 2.68 -1 2 C-1.66 1.67 -2.32 1.34 -3 1 C-2.01 0.67 -1.02 0.34 0 0 Z " fill="#8D562A" transform="translate(29,7)"/>
<path d="M0 0 C2.24366996 1.12183498 4.07335866 2.39446555 6 4 C6 4.66 6 5.32 6 6 C4.51882199 5.71872579 3.04006751 5.42466268 1.5625 5.125 C0.73878906 4.96257813 -0.08492188 4.80015625 -0.93359375 4.6328125 C-1.61550781 4.42398438 -2.29742188 4.21515625 -3 4 C-3.33 3.34 -3.66 2.68 -4 2 C-2.125 0.9375 -2.125 0.9375 0 0 Z " fill="#69330C" transform="translate(8,37)"/>
<path d="M0 0 C0.99 0.33 1.98 0.66 3 1 C3 1.33 3 1.66 3 2 C4.98 2 6.96 2 9 2 C8.67 3.32 8.34 4.64 8 6 C6.35 6.33 4.7 6.66 3 7 C3.66 6.34 4.32 5.68 5 5 C2.525 4.01 2.525 4.01 0 3 C0 2.01 0 1.02 0 0 Z " fill="#A46A4A" transform="translate(20,35)"/>
<path d="M0 0 C0.99 0.33 1.98 0.66 3 1 C2.01 1.495 2.01 1.495 1 2 C1 3.65 1 5.3 1 7 C-0.32 7 -1.64 7 -3 7 C-3.33 5.68 -3.66 4.36 -4 3 C-2.1875 1.4375 -2.1875 1.4375 0 0 Z " fill="#4C2B18" transform="translate(20,3)"/>
<path d="M0 0 C0.99 0.33 1.98 0.66 3 1 C2.67 2.65 2.34 4.3 2 6 C1.01 6 0.02 6 -1 6 C-1.33 4.68 -1.66 3.36 -2 2 C-1.34 2 -0.68 2 0 2 C0 1.34 0 0.68 0 0 Z " fill="#DA926E" transform="translate(16,24)"/>
<path d="M0 0 C0.66 0.33 1.32 0.66 2 1 C1.979375 2.11375 1.95875 3.2275 1.9375 4.375 C1.73619282 7.83215921 1.73619282 7.83215921 3 10 C2.01 10 1.02 10 0 10 C-1.125 2.25 -1.125 2.25 0 0 Z " fill="#A86C4F" transform="translate(13,12)"/>
<path d="M0 0 C3.63 0.66 7.26 1.32 11 2 C11 2.33 11 2.66 11 3 C7.7 3.33 4.4 3.66 1 4 C0.67 2.68 0.34 1.36 0 0 Z " fill="#794E33" transform="translate(14,8)"/>
<path d="M0 0 C2.31 0.33 4.62 0.66 7 1 C6.01 1.33 5.02 1.66 4 2 C3.67 2.66 3.34 3.32 3 4 C1.68 4 0.36 4 -1 4 C-0.67 2.68 -0.34 1.36 0 0 Z " fill="#704525" transform="translate(21,4)"/>
<path d="M0 0 C0.66 1.32 1.32 2.64 2 4 C1.01 4.99 0.02 5.98 -1 7 C-1.66 6.34 -2.32 5.68 -3 5 C-2 2 -2 2 0 0 Z " fill="#A36045" transform="translate(18,28)"/>
</svg>
