<svg width="24" height="25" viewBox="0 0 24 25" fill="none" xmlns="http://www.w3.org/2000/svg">
<path d="M2 12.5016C2.0005 10.3092 2.72148 8.17774 4.05199 6.43522C5.38249 4.69269 7.24877 3.4357 9.3636 2.8577C11.4784 2.27969 13.7246 2.41271 15.7565 3.23628C17.7883 4.05984 19.4932 5.52831 20.6087 7.41569C21.7243 9.30307 22.1886 11.5047 21.9304 13.6819C21.6721 15.859 20.7055 17.891 19.1794 19.465C17.6533 21.039 15.6521 22.0678 13.484 22.3932C11.3159 22.7185 9.10092 22.3224 7.18 21.2656L3.292 22.4496C3.11858 22.5024 2.93407 22.5071 2.75819 22.4632C2.58231 22.4192 2.42168 22.3283 2.2935 22.2001C2.16531 22.0719 2.07438 21.9113 2.03043 21.7354C1.98648 21.5596 1.99117 21.375 2.044 21.2016L3.228 17.3076C2.42153 15.8342 1.9992 14.1813 2 12.5016ZM8 11.5016C8 11.7668 8.10536 12.0212 8.29289 12.2087C8.48043 12.3963 8.73478 12.5016 9 12.5016H15C15.2652 12.5016 15.5196 12.3963 15.7071 12.2087C15.8946 12.0212 16 11.7668 16 11.5016C16 11.2364 15.8946 10.9821 15.7071 10.7945C15.5196 10.607 15.2652 10.5016 15 10.5016H9C8.73478 10.5016 8.48043 10.607 8.29289 10.7945C8.10536 10.9821 8 11.2364 8 11.5016ZM9 14.5016C8.73478 14.5016 8.48043 14.607 8.29289 14.7945C8.10536 14.9821 8 15.2364 8 15.5016C8 15.7668 8.10536 16.0212 8.29289 16.2087C8.48043 16.3963 8.73478 16.5016 9 16.5016H13C13.2652 16.5016 13.5196 16.3963 13.7071 16.2087C13.8946 16.0212 14 15.7668 14 15.5016C14 15.2364 13.8946 14.9821 13.7071 14.7945C13.5196 14.607 13.2652 14.5016 13 14.5016H9Z" fill="#888888"/>
</svg>
