<svg width="20" height="21" viewBox="0 0 20 21" fill="none" xmlns="http://www.w3.org/2000/svg">
<path d="M8.27539 1.78418C9.34258 1.16826 10.6574 1.16826 11.7246 1.78418L16.6855 4.64844C17.7527 5.26468 18.41 6.40344 18.4102 7.63574V13.3643C18.41 14.5966 17.7527 15.7353 16.6855 16.3516L11.7246 19.2158C10.6574 19.8317 9.34258 19.8317 8.27539 19.2158L3.31445 16.3516C2.24729 15.7353 1.59001 14.5966 1.58984 13.3643V7.63574C1.59001 6.40344 2.24729 5.26468 3.31445 4.64844L8.27539 1.78418Z" fill="#822ECB" fill-opacity="0.16" stroke="#822ECB" stroke-width="0.5"/>
<path d="M3.49531 13.25V8.6665H4.67656L5.95933 10.7398C6.03521 10.8629 6.11211 10.9962 6.19004 11.1397C6.26797 11.2813 6.3459 11.4381 6.42383 11.6104C6.50176 11.7806 6.57969 11.9703 6.65762 12.1795L6.54995 12.2472C6.53765 12.0811 6.52534 11.8965 6.51304 11.6935C6.50278 11.4904 6.49356 11.2936 6.48535 11.1028C6.47715 10.9121 6.47305 10.7532 6.47305 10.626V8.6665H7.58355V13.25H6.39922L5.22105 11.3489C5.12671 11.1931 5.03648 11.0382 4.95034 10.8844C4.86421 10.7286 4.77603 10.5594 4.68579 10.3769C4.59761 10.1923 4.49712 9.98208 4.38433 9.74624L4.52891 9.72778C4.54326 9.94517 4.55659 10.1574 4.5689 10.3646C4.5812 10.5717 4.59043 10.7604 4.59658 10.9306C4.60274 11.1008 4.60581 11.2402 4.60581 11.3489V13.25H3.49531ZM8.77568 13.25V8.6665H11.9318V9.56475H9.86465V10.6845H11.7473V11.5612H9.86465V13.25H8.77568ZM12.8164 9.56475V8.6665H16.6616V9.56475H15.2834V13.25H14.1945V9.56475H12.8164Z" fill="#822ECB"/>
</svg>
