<svg width="20" height="20" viewBox="0 0 20 20" fill="none" xmlns="http://www.w3.org/2000/svg">
<path fill-rule="evenodd" clip-rule="evenodd" d="M5.22333 2.5013H4.16667C3.72464 2.5013 3.30072 2.6769 2.98816 2.98946C2.67559 3.30202 2.5 3.72594 2.5 4.16797V14.168C2.5 14.61 2.67559 15.0339 2.98816 15.3465C3.30072 15.659 3.72464 15.8346 4.16667 15.8346H6.66667V10.0013C6.66667 9.11725 7.01786 8.2694 7.64298 7.64428C8.2681 7.01916 9.11594 6.66797 10 6.66797H15V4.16797C15 3.72594 14.8244 3.30202 14.5118 2.98946C14.1993 2.6769 13.7754 2.5013 13.3333 2.5013H12.2767C12.1304 2.24794 11.92 2.03755 11.6666 1.89127C11.4133 1.74499 11.1259 1.66798 10.8333 1.66797H6.66667C6.37411 1.66798 6.08671 1.74499 5.83336 1.89127C5.58 2.03755 5.36961 2.24794 5.22333 2.5013ZM10.4167 5.0013C10.5272 5.0013 10.6332 4.9574 10.7113 4.87926C10.7894 4.80112 10.8333 4.69514 10.8333 4.58464V3.7513C10.8333 3.6408 10.7894 3.53481 10.7113 3.45667C10.6332 3.37853 10.5272 3.33464 10.4167 3.33464H7.08333C6.97283 3.33464 6.86685 3.37853 6.7887 3.45667C6.71057 3.53481 6.66667 3.6408 6.66667 3.7513V4.58464C6.66667 4.69514 6.71057 4.80112 6.7887 4.87926C6.86685 4.9574 6.97283 5.0013 7.08333 5.0013H10.4167ZM10 8.33464C9.55797 8.33464 9.13405 8.51023 8.82149 8.82279C8.50893 9.13535 8.33333 9.55927 8.33333 10.0013V16.668C8.33333 17.11 8.50893 17.5339 8.82149 17.8465C9.13405 18.159 9.55797 18.3346 10 18.3346H15.8333C16.2754 18.3346 16.6993 18.159 17.0118 17.8465C17.3244 17.5339 17.5 17.11 17.5 16.668V10.0013C17.5 9.55927 17.3244 9.13535 17.0118 8.82279C16.6993 8.51023 16.2754 8.33464 15.8333 8.33464H10Z" fill="#B0B0B0"/>
</svg>
