<svg width="684" height="902" viewBox="0 0 684 902" fill="none" xmlns="http://www.w3.org/2000/svg">
<g clip-path="url(#clip0_819_18074)">
<rect width="684" height="902" rx="8" fill="url(#paint0_linear_819_18074)"/>
<g opacity="0.03" clip-path="url(#clip1_819_18074)">
<path d="M81.6264 -6H79.3867V909.796H81.6264V-6Z" fill="#EDF7FF"/>
<path d="M219.251 -6H217.012V909.796H219.251V-6Z" fill="#EDF7FF"/>
<path d="M356.892 -6H354.652V909.796H356.892V-6Z" fill="#EDF7FF"/>
<path d="M494.529 -6H492.289V909.796H494.529V-6Z" fill="#EDF7FF"/>
<path d="M632.169 -6H629.93V909.796H632.169V-6Z" fill="#EDF7FF"/>
<path d="M1695.01 815.922H-20V818.162H1695.01V815.922Z" fill="#EDF7FF"/>
<path d="M1695.01 678.281H-20V680.521H1695.01V678.281Z" fill="#EDF7FF"/>
<path d="M1695.01 540.645H-20V542.884H1695.01V540.645Z" fill="#EDF7FF"/>
<path d="M1695.01 403.006H-20V405.246H1695.01V403.006Z" fill="#EDF7FF"/>
<path d="M1695.01 265.369H-20V267.609H1695.01V265.369Z" fill="#EDF7FF"/>
<path d="M1695.01 127.73H-20V129.97H1695.01V127.73Z" fill="#EDF7FF"/>
<mask id="mask0_819_18074" style="mask-type:luminance" maskUnits="userSpaceOnUse" x="365" y="1" width="118" height="256">
<path d="M482.377 1.83789H365.008V256.263H482.377V1.83789Z" fill="white"/>
</mask>
<g mask="url(#mask0_819_18074)">
<path d="M366.721 5.26457C367.667 5.26457 368.434 4.49748 368.434 3.55123C368.434 2.60498 367.667 1.83789 366.721 1.83789C365.775 1.83789 365.008 2.60498 365.008 3.55123C365.008 4.49748 365.775 5.26457 366.721 5.26457Z" fill="#D6ECFF"/>
<path d="M382.858 5.26457C383.804 5.26457 384.571 4.49748 384.571 3.55123C384.571 2.60498 383.804 1.83789 382.858 1.83789C381.912 1.83789 381.145 2.60498 381.145 3.55123C381.145 4.49748 381.912 5.26457 382.858 5.26457Z" fill="#D6ECFF"/>
<path d="M398.995 5.26457C399.941 5.26457 400.708 4.49748 400.708 3.55123C400.708 2.60498 399.941 1.83789 398.995 1.83789C398.048 1.83789 397.281 2.60498 397.281 3.55123C397.281 4.49748 398.048 5.26457 398.995 5.26457Z" fill="#D6ECFF"/>
<path d="M415.131 5.26457C416.078 5.26457 416.845 4.49748 416.845 3.55123C416.845 2.60498 416.078 1.83789 415.131 1.83789C414.185 1.83789 413.418 2.60498 413.418 3.55123C413.418 4.49748 414.185 5.26457 415.131 5.26457Z" fill="#D6ECFF"/>
<path d="M431.268 5.26457C432.214 5.26457 432.981 4.49748 432.981 3.55123C432.981 2.60498 432.214 1.83789 431.268 1.83789C430.322 1.83789 429.555 2.60498 429.555 3.55123C429.555 4.49748 430.322 5.26457 431.268 5.26457Z" fill="#D6ECFF"/>
<path d="M447.393 5.26457C448.339 5.26457 449.106 4.49748 449.106 3.55123C449.106 2.60498 448.339 1.83789 447.393 1.83789C446.447 1.83789 445.68 2.60498 445.68 3.55123C445.68 4.49748 446.447 5.26457 447.393 5.26457Z" fill="#D6ECFF"/>
<path d="M463.53 5.26457C464.476 5.26457 465.243 4.49748 465.243 3.55123C465.243 2.60498 464.476 1.83789 463.53 1.83789C462.583 1.83789 461.816 2.60498 461.816 3.55123C461.816 4.49748 462.583 5.26457 463.53 5.26457Z" fill="#D6ECFF"/>
<path d="M479.666 5.26457C480.613 5.26457 481.38 4.49748 481.38 3.55123C481.38 2.60498 480.613 1.83789 479.666 1.83789C478.72 1.83789 477.953 2.60498 477.953 3.55123C477.953 4.49748 478.72 5.26457 479.666 5.26457Z" fill="#D6ECFF"/>
<path d="M366.721 19.8896C367.667 19.8896 368.434 19.1225 368.434 18.1762C368.434 17.23 367.667 16.4629 366.721 16.4629C365.775 16.4629 365.008 17.23 365.008 18.1762C365.008 19.1225 365.775 19.8896 366.721 19.8896Z" fill="#D6ECFF"/>
<path d="M382.858 19.8896C383.804 19.8896 384.571 19.1225 384.571 18.1762C384.571 17.23 383.804 16.4629 382.858 16.4629C381.912 16.4629 381.145 17.23 381.145 18.1762C381.145 19.1225 381.912 19.8896 382.858 19.8896Z" fill="#D6ECFF"/>
<path d="M398.995 19.8896C399.941 19.8896 400.708 19.1225 400.708 18.1762C400.708 17.23 399.941 16.4629 398.995 16.4629C398.048 16.4629 397.281 17.23 397.281 18.1762C397.281 19.1225 398.048 19.8896 398.995 19.8896Z" fill="#D6ECFF"/>
<path d="M415.131 19.8896C416.078 19.8896 416.845 19.1225 416.845 18.1762C416.845 17.23 416.078 16.4629 415.131 16.4629C414.185 16.4629 413.418 17.23 413.418 18.1762C413.418 19.1225 414.185 19.8896 415.131 19.8896Z" fill="#D6ECFF"/>
<path d="M431.268 19.8896C432.214 19.8896 432.981 19.1225 432.981 18.1762C432.981 17.23 432.214 16.4629 431.268 16.4629C430.322 16.4629 429.555 17.23 429.555 18.1762C429.555 19.1225 430.322 19.8896 431.268 19.8896Z" fill="#D6ECFF"/>
<path d="M447.393 19.8896C448.339 19.8896 449.106 19.1225 449.106 18.1762C449.106 17.23 448.339 16.4629 447.393 16.4629C446.447 16.4629 445.68 17.23 445.68 18.1762C445.68 19.1225 446.447 19.8896 447.393 19.8896Z" fill="#D6ECFF"/>
<path d="M463.53 19.8896C464.476 19.8896 465.243 19.1225 465.243 18.1762C465.243 17.23 464.476 16.4629 463.53 16.4629C462.583 16.4629 461.816 17.23 461.816 18.1762C461.816 19.1225 462.583 19.8896 463.53 19.8896Z" fill="#D6ECFF"/>
<path d="M479.666 19.8896C480.613 19.8896 481.38 19.1225 481.38 18.1762C481.38 17.23 480.613 16.4629 479.666 16.4629C478.72 16.4629 477.953 17.23 477.953 18.1762C477.953 19.1225 478.72 19.8896 479.666 19.8896Z" fill="#D6ECFF"/>
<path d="M366.721 34.5048C367.667 34.5048 368.434 33.7377 368.434 32.7915C368.434 31.8452 367.667 31.0781 366.721 31.0781C365.775 31.0781 365.008 31.8452 365.008 32.7915C365.008 33.7377 365.775 34.5048 366.721 34.5048Z" fill="#D6ECFF"/>
<path d="M382.858 34.5048C383.804 34.5048 384.571 33.7377 384.571 32.7915C384.571 31.8452 383.804 31.0781 382.858 31.0781C381.912 31.0781 381.145 31.8452 381.145 32.7915C381.145 33.7377 381.912 34.5048 382.858 34.5048Z" fill="#D6ECFF"/>
<path d="M398.995 34.5048C399.941 34.5048 400.708 33.7377 400.708 32.7915C400.708 31.8452 399.941 31.0781 398.995 31.0781C398.048 31.0781 397.281 31.8452 397.281 32.7915C397.281 33.7377 398.048 34.5048 398.995 34.5048Z" fill="#D6ECFF"/>
<path d="M415.131 34.5048C416.078 34.5048 416.845 33.7377 416.845 32.7915C416.845 31.8452 416.078 31.0781 415.131 31.0781C414.185 31.0781 413.418 31.8452 413.418 32.7915C413.418 33.7377 414.185 34.5048 415.131 34.5048Z" fill="#D6ECFF"/>
<path d="M431.268 34.5048C432.214 34.5048 432.981 33.7377 432.981 32.7915C432.981 31.8452 432.214 31.0781 431.268 31.0781C430.322 31.0781 429.555 31.8452 429.555 32.7915C429.555 33.7377 430.322 34.5048 431.268 34.5048Z" fill="#D6ECFF"/>
<path d="M447.393 34.5048C448.339 34.5048 449.106 33.7377 449.106 32.7915C449.106 31.8452 448.339 31.0781 447.393 31.0781C446.447 31.0781 445.68 31.8452 445.68 32.7915C445.68 33.7377 446.447 34.5048 447.393 34.5048Z" fill="#D6ECFF"/>
<path d="M463.53 34.5048C464.476 34.5048 465.243 33.7377 465.243 32.7915C465.243 31.8452 464.476 31.0781 463.53 31.0781C462.583 31.0781 461.816 31.8452 461.816 32.7915C461.816 33.7377 462.583 34.5048 463.53 34.5048Z" fill="#D6ECFF"/>
<path d="M479.666 34.5048C480.613 34.5048 481.38 33.7377 481.38 32.7915C481.38 31.8452 480.613 31.0781 479.666 31.0781C478.72 31.0781 477.953 31.8452 477.953 32.7915C477.953 33.7377 478.72 34.5048 479.666 34.5048Z" fill="#D6ECFF"/>
<path d="M366.721 49.1298C367.667 49.1298 368.434 48.3627 368.434 47.4165C368.434 46.4702 367.667 45.7031 366.721 45.7031C365.775 45.7031 365.008 46.4702 365.008 47.4165C365.008 48.3627 365.775 49.1298 366.721 49.1298Z" fill="#D6ECFF"/>
<path d="M382.858 49.1298C383.804 49.1298 384.571 48.3627 384.571 47.4165C384.571 46.4702 383.804 45.7031 382.858 45.7031C381.912 45.7031 381.145 46.4702 381.145 47.4165C381.145 48.3627 381.912 49.1298 382.858 49.1298Z" fill="#D6ECFF"/>
<path d="M398.995 49.1298C399.941 49.1298 400.708 48.3627 400.708 47.4165C400.708 46.4702 399.941 45.7031 398.995 45.7031C398.048 45.7031 397.281 46.4702 397.281 47.4165C397.281 48.3627 398.048 49.1298 398.995 49.1298Z" fill="#D6ECFF"/>
<path d="M415.131 49.1298C416.078 49.1298 416.845 48.3627 416.845 47.4165C416.845 46.4702 416.078 45.7031 415.131 45.7031C414.185 45.7031 413.418 46.4702 413.418 47.4165C413.418 48.3627 414.185 49.1298 415.131 49.1298Z" fill="#D6ECFF"/>
<path d="M431.268 49.1298C432.214 49.1298 432.981 48.3627 432.981 47.4165C432.981 46.4702 432.214 45.7031 431.268 45.7031C430.322 45.7031 429.555 46.4702 429.555 47.4165C429.555 48.3627 430.322 49.1298 431.268 49.1298Z" fill="#D6ECFF"/>
<path d="M447.393 49.1298C448.339 49.1298 449.106 48.3627 449.106 47.4165C449.106 46.4702 448.339 45.7031 447.393 45.7031C446.447 45.7031 445.68 46.4702 445.68 47.4165C445.68 48.3627 446.447 49.1298 447.393 49.1298Z" fill="#D6ECFF"/>
<path d="M463.53 49.1298C464.476 49.1298 465.243 48.3627 465.243 47.4165C465.243 46.4702 464.476 45.7031 463.53 45.7031C462.583 45.7031 461.816 46.4702 461.816 47.4165C461.816 48.3627 462.583 49.1298 463.53 49.1298Z" fill="#D6ECFF"/>
<path d="M479.666 49.1298C480.613 49.1298 481.38 48.3627 481.38 47.4165C481.38 46.4702 480.613 45.7031 479.666 45.7031C478.72 45.7031 477.953 46.4702 477.953 47.4165C477.953 48.3627 478.72 49.1298 479.666 49.1298Z" fill="#D6ECFF"/>
<path d="M366.721 63.7548C367.667 63.7548 368.434 62.9877 368.434 62.0415C368.434 61.0952 367.667 60.3281 366.721 60.3281C365.775 60.3281 365.008 61.0952 365.008 62.0415C365.008 62.9877 365.775 63.7548 366.721 63.7548Z" fill="#D6ECFF"/>
<path d="M382.858 63.7548C383.804 63.7548 384.571 62.9877 384.571 62.0415C384.571 61.0952 383.804 60.3281 382.858 60.3281C381.912 60.3281 381.145 61.0952 381.145 62.0415C381.145 62.9877 381.912 63.7548 382.858 63.7548Z" fill="#D6ECFF"/>
<path d="M398.995 63.7548C399.941 63.7548 400.708 62.9877 400.708 62.0415C400.708 61.0952 399.941 60.3281 398.995 60.3281C398.048 60.3281 397.281 61.0952 397.281 62.0415C397.281 62.9877 398.048 63.7548 398.995 63.7548Z" fill="#D6ECFF"/>
<path d="M415.131 63.7548C416.078 63.7548 416.845 62.9877 416.845 62.0415C416.845 61.0952 416.078 60.3281 415.131 60.3281C414.185 60.3281 413.418 61.0952 413.418 62.0415C413.418 62.9877 414.185 63.7548 415.131 63.7548Z" fill="#D6ECFF"/>
<path d="M431.268 63.7548C432.214 63.7548 432.981 62.9877 432.981 62.0415C432.981 61.0952 432.214 60.3281 431.268 60.3281C430.322 60.3281 429.555 61.0952 429.555 62.0415C429.555 62.9877 430.322 63.7548 431.268 63.7548Z" fill="#D6ECFF"/>
<path d="M447.393 63.7548C448.339 63.7548 449.106 62.9877 449.106 62.0415C449.106 61.0952 448.339 60.3281 447.393 60.3281C446.447 60.3281 445.68 61.0952 445.68 62.0415C445.68 62.9877 446.447 63.7548 447.393 63.7548Z" fill="#D6ECFF"/>
<path d="M463.53 63.7548C464.476 63.7548 465.243 62.9877 465.243 62.0415C465.243 61.0952 464.476 60.3281 463.53 60.3281C462.583 60.3281 461.816 61.0952 461.816 62.0415C461.816 62.9877 462.583 63.7548 463.53 63.7548Z" fill="#D6ECFF"/>
<path d="M479.666 63.7548C480.613 63.7548 481.38 62.9877 481.38 62.0415C481.38 61.0952 480.613 60.3281 479.666 60.3281C478.72 60.3281 477.953 61.0952 477.953 62.0415C477.953 62.9877 478.72 63.7548 479.666 63.7548Z" fill="#D6ECFF"/>
<path d="M366.721 78.3778C367.667 78.3778 368.434 77.6108 368.434 76.6645C368.434 75.7183 367.667 74.9512 366.721 74.9512C365.775 74.9512 365.008 75.7183 365.008 76.6645C365.008 77.6108 365.775 78.3778 366.721 78.3778Z" fill="#D6ECFF"/>
<path d="M382.858 78.3778C383.804 78.3778 384.571 77.6108 384.571 76.6645C384.571 75.7183 383.804 74.9512 382.858 74.9512C381.912 74.9512 381.145 75.7183 381.145 76.6645C381.145 77.6108 381.912 78.3778 382.858 78.3778Z" fill="#D6ECFF"/>
<path d="M398.995 78.3778C399.941 78.3778 400.708 77.6108 400.708 76.6645C400.708 75.7183 399.941 74.9512 398.995 74.9512C398.048 74.9512 397.281 75.7183 397.281 76.6645C397.281 77.6108 398.048 78.3778 398.995 78.3778Z" fill="#D6ECFF"/>
<path d="M415.131 78.3778C416.078 78.3778 416.845 77.6108 416.845 76.6645C416.845 75.7183 416.078 74.9512 415.131 74.9512C414.185 74.9512 413.418 75.7183 413.418 76.6645C413.418 77.6108 414.185 78.3778 415.131 78.3778Z" fill="#D6ECFF"/>
<path d="M431.268 78.3778C432.214 78.3778 432.981 77.6108 432.981 76.6645C432.981 75.7183 432.214 74.9512 431.268 74.9512C430.322 74.9512 429.555 75.7183 429.555 76.6645C429.555 77.6108 430.322 78.3778 431.268 78.3778Z" fill="#D6ECFF"/>
<path d="M447.393 78.3778C448.339 78.3778 449.106 77.6108 449.106 76.6645C449.106 75.7183 448.339 74.9512 447.393 74.9512C446.447 74.9512 445.68 75.7183 445.68 76.6645C445.68 77.6108 446.447 78.3778 447.393 78.3778Z" fill="#D6ECFF"/>
<path d="M463.53 78.3778C464.476 78.3778 465.243 77.6108 465.243 76.6645C465.243 75.7183 464.476 74.9512 463.53 74.9512C462.583 74.9512 461.816 75.7183 461.816 76.6645C461.816 77.6108 462.583 78.3778 463.53 78.3778Z" fill="#D6ECFF"/>
<path d="M479.666 78.3778C480.613 78.3778 481.38 77.6108 481.38 76.6645C481.38 75.7183 480.613 74.9512 479.666 74.9512C478.72 74.9512 477.953 75.7183 477.953 76.6645C477.953 77.6108 478.72 78.3778 479.666 78.3778Z" fill="#D6ECFF"/>
<path d="M366.721 92.9931C367.667 92.9931 368.434 92.226 368.434 91.2798C368.434 90.3335 367.667 89.5664 366.721 89.5664C365.775 89.5664 365.008 90.3335 365.008 91.2798C365.008 92.226 365.775 92.9931 366.721 92.9931Z" fill="#D6ECFF"/>
<path d="M382.858 92.9931C383.804 92.9931 384.571 92.226 384.571 91.2798C384.571 90.3335 383.804 89.5664 382.858 89.5664C381.912 89.5664 381.145 90.3335 381.145 91.2798C381.145 92.226 381.912 92.9931 382.858 92.9931Z" fill="#D6ECFF"/>
<path d="M398.995 92.9931C399.941 92.9931 400.708 92.226 400.708 91.2798C400.708 90.3335 399.941 89.5664 398.995 89.5664C398.048 89.5664 397.281 90.3335 397.281 91.2798C397.281 92.226 398.048 92.9931 398.995 92.9931Z" fill="#D6ECFF"/>
<path d="M415.131 92.9931C416.078 92.9931 416.845 92.226 416.845 91.2798C416.845 90.3335 416.078 89.5664 415.131 89.5664C414.185 89.5664 413.418 90.3335 413.418 91.2798C413.418 92.226 414.185 92.9931 415.131 92.9931Z" fill="#D6ECFF"/>
<path d="M431.268 92.9931C432.214 92.9931 432.981 92.226 432.981 91.2798C432.981 90.3335 432.214 89.5664 431.268 89.5664C430.322 89.5664 429.555 90.3335 429.555 91.2798C429.555 92.226 430.322 92.9931 431.268 92.9931Z" fill="#D6ECFF"/>
<path d="M447.393 92.9931C448.339 92.9931 449.106 92.226 449.106 91.2798C449.106 90.3335 448.339 89.5664 447.393 89.5664C446.447 89.5664 445.68 90.3335 445.68 91.2798C445.68 92.226 446.447 92.9931 447.393 92.9931Z" fill="#D6ECFF"/>
<path d="M463.53 92.9931C464.476 92.9931 465.243 92.226 465.243 91.2798C465.243 90.3335 464.476 89.5664 463.53 89.5664C462.583 89.5664 461.816 90.3335 461.816 91.2798C461.816 92.226 462.583 92.9931 463.53 92.9931Z" fill="#D6ECFF"/>
<path d="M479.666 92.9931C480.613 92.9931 481.38 92.226 481.38 91.2798C481.38 90.3335 480.613 89.5664 479.666 89.5664C478.72 89.5664 477.953 90.3335 477.953 91.2798C477.953 92.226 478.72 92.9931 479.666 92.9931Z" fill="#D6ECFF"/>
<path d="M366.721 107.618C367.667 107.618 368.434 106.851 368.434 105.905C368.434 104.958 367.667 104.191 366.721 104.191C365.775 104.191 365.008 104.958 365.008 105.905C365.008 106.851 365.775 107.618 366.721 107.618Z" fill="#D6ECFF"/>
<path d="M382.858 107.618C383.804 107.618 384.571 106.851 384.571 105.905C384.571 104.958 383.804 104.191 382.858 104.191C381.912 104.191 381.145 104.958 381.145 105.905C381.145 106.851 381.912 107.618 382.858 107.618Z" fill="#D6ECFF"/>
<path d="M398.995 107.618C399.941 107.618 400.708 106.851 400.708 105.905C400.708 104.958 399.941 104.191 398.995 104.191C398.048 104.191 397.281 104.958 397.281 105.905C397.281 106.851 398.048 107.618 398.995 107.618Z" fill="#D6ECFF"/>
<path d="M415.131 107.618C416.078 107.618 416.845 106.851 416.845 105.905C416.845 104.958 416.078 104.191 415.131 104.191C414.185 104.191 413.418 104.958 413.418 105.905C413.418 106.851 414.185 107.618 415.131 107.618Z" fill="#D6ECFF"/>
<path d="M431.268 107.618C432.214 107.618 432.981 106.851 432.981 105.905C432.981 104.958 432.214 104.191 431.268 104.191C430.322 104.191 429.555 104.958 429.555 105.905C429.555 106.851 430.322 107.618 431.268 107.618Z" fill="#D6ECFF"/>
<path d="M447.393 107.618C448.339 107.618 449.106 106.851 449.106 105.905C449.106 104.958 448.339 104.191 447.393 104.191C446.447 104.191 445.68 104.958 445.68 105.905C445.68 106.851 446.447 107.618 447.393 107.618Z" fill="#D6ECFF"/>
<path d="M463.53 107.618C464.476 107.618 465.243 106.851 465.243 105.905C465.243 104.958 464.476 104.191 463.53 104.191C462.583 104.191 461.816 104.958 461.816 105.905C461.816 106.851 462.583 107.618 463.53 107.618Z" fill="#D6ECFF"/>
<path d="M479.666 107.618C480.613 107.618 481.38 106.851 481.38 105.905C481.38 104.958 480.613 104.191 479.666 104.191C478.72 104.191 477.953 104.958 477.953 105.905C477.953 106.851 478.72 107.618 479.666 107.618Z" fill="#D6ECFF"/>
<path d="M366.721 122.243C367.667 122.243 368.434 121.476 368.434 120.53C368.434 119.583 367.667 118.816 366.721 118.816C365.775 118.816 365.008 119.583 365.008 120.53C365.008 121.476 365.775 122.243 366.721 122.243Z" fill="#D6ECFF"/>
<path d="M382.858 122.243C383.804 122.243 384.571 121.476 384.571 120.53C384.571 119.583 383.804 118.816 382.858 118.816C381.912 118.816 381.145 119.583 381.145 120.53C381.145 121.476 381.912 122.243 382.858 122.243Z" fill="#D6ECFF"/>
<path d="M398.995 122.243C399.941 122.243 400.708 121.476 400.708 120.53C400.708 119.583 399.941 118.816 398.995 118.816C398.048 118.816 397.281 119.583 397.281 120.53C397.281 121.476 398.048 122.243 398.995 122.243Z" fill="#D6ECFF"/>
<path d="M415.131 122.243C416.078 122.243 416.845 121.476 416.845 120.53C416.845 119.583 416.078 118.816 415.131 118.816C414.185 118.816 413.418 119.583 413.418 120.53C413.418 121.476 414.185 122.243 415.131 122.243Z" fill="#D6ECFF"/>
<path d="M431.268 122.243C432.214 122.243 432.981 121.476 432.981 120.53C432.981 119.583 432.214 118.816 431.268 118.816C430.322 118.816 429.555 119.583 429.555 120.53C429.555 121.476 430.322 122.243 431.268 122.243Z" fill="#D6ECFF"/>
<path d="M447.393 122.243C448.339 122.243 449.106 121.476 449.106 120.53C449.106 119.583 448.339 118.816 447.393 118.816C446.447 118.816 445.68 119.583 445.68 120.53C445.68 121.476 446.447 122.243 447.393 122.243Z" fill="#D6ECFF"/>
<path d="M463.53 122.243C464.476 122.243 465.243 121.476 465.243 120.53C465.243 119.583 464.476 118.816 463.53 118.816C462.583 118.816 461.816 119.583 461.816 120.53C461.816 121.476 462.583 122.243 463.53 122.243Z" fill="#D6ECFF"/>
<path d="M479.666 122.243C480.613 122.243 481.38 121.476 481.38 120.53C481.38 119.583 480.613 118.816 479.666 118.816C478.72 118.816 477.953 119.583 477.953 120.53C477.953 121.476 478.72 122.243 479.666 122.243Z" fill="#D6ECFF"/>
<path d="M366.721 136.856C367.667 136.856 368.434 136.089 368.434 135.143C368.434 134.197 367.667 133.43 366.721 133.43C365.775 133.43 365.008 134.197 365.008 135.143C365.008 136.089 365.775 136.856 366.721 136.856Z" fill="#D6ECFF"/>
<path d="M382.858 136.856C383.804 136.856 384.571 136.089 384.571 135.143C384.571 134.197 383.804 133.43 382.858 133.43C381.912 133.43 381.145 134.197 381.145 135.143C381.145 136.089 381.912 136.856 382.858 136.856Z" fill="#D6ECFF"/>
<path d="M398.995 136.856C399.941 136.856 400.708 136.089 400.708 135.143C400.708 134.197 399.941 133.43 398.995 133.43C398.048 133.43 397.281 134.197 397.281 135.143C397.281 136.089 398.048 136.856 398.995 136.856Z" fill="#D6ECFF"/>
<path d="M415.131 136.856C416.078 136.856 416.845 136.089 416.845 135.143C416.845 134.197 416.078 133.43 415.131 133.43C414.185 133.43 413.418 134.197 413.418 135.143C413.418 136.089 414.185 136.856 415.131 136.856Z" fill="#D6ECFF"/>
<path d="M431.268 136.856C432.214 136.856 432.981 136.089 432.981 135.143C432.981 134.197 432.214 133.43 431.268 133.43C430.322 133.43 429.555 134.197 429.555 135.143C429.555 136.089 430.322 136.856 431.268 136.856Z" fill="#D6ECFF"/>
<path d="M447.393 136.856C448.339 136.856 449.106 136.089 449.106 135.143C449.106 134.197 448.339 133.43 447.393 133.43C446.447 133.43 445.68 134.197 445.68 135.143C445.68 136.089 446.447 136.856 447.393 136.856Z" fill="#D6ECFF"/>
<path d="M463.53 136.856C464.476 136.856 465.243 136.089 465.243 135.143C465.243 134.197 464.476 133.43 463.53 133.43C462.583 133.43 461.816 134.197 461.816 135.143C461.816 136.089 462.583 136.856 463.53 136.856Z" fill="#D6ECFF"/>
<path d="M479.666 136.856C480.613 136.856 481.38 136.089 481.38 135.143C481.38 134.197 480.613 133.43 479.666 133.43C478.72 133.43 477.953 134.197 477.953 135.143C477.953 136.089 478.72 136.856 479.666 136.856Z" fill="#D6ECFF"/>
<path d="M366.721 151.481C367.667 151.481 368.434 150.714 368.434 149.768C368.434 148.822 367.667 148.055 366.721 148.055C365.775 148.055 365.008 148.822 365.008 149.768C365.008 150.714 365.775 151.481 366.721 151.481Z" fill="#D6ECFF"/>
<path d="M382.858 151.481C383.804 151.481 384.571 150.714 384.571 149.768C384.571 148.822 383.804 148.055 382.858 148.055C381.912 148.055 381.145 148.822 381.145 149.768C381.145 150.714 381.912 151.481 382.858 151.481Z" fill="#D6ECFF"/>
<path d="M398.995 151.481C399.941 151.481 400.708 150.714 400.708 149.768C400.708 148.822 399.941 148.055 398.995 148.055C398.048 148.055 397.281 148.822 397.281 149.768C397.281 150.714 398.048 151.481 398.995 151.481Z" fill="#D6ECFF"/>
<path d="M415.131 151.481C416.078 151.481 416.845 150.714 416.845 149.768C416.845 148.822 416.078 148.055 415.131 148.055C414.185 148.055 413.418 148.822 413.418 149.768C413.418 150.714 414.185 151.481 415.131 151.481Z" fill="#D6ECFF"/>
<path d="M431.268 151.481C432.214 151.481 432.981 150.714 432.981 149.768C432.981 148.822 432.214 148.055 431.268 148.055C430.322 148.055 429.555 148.822 429.555 149.768C429.555 150.714 430.322 151.481 431.268 151.481Z" fill="#D6ECFF"/>
<path d="M447.393 151.481C448.339 151.481 449.106 150.714 449.106 149.768C449.106 148.822 448.339 148.055 447.393 148.055C446.447 148.055 445.68 148.822 445.68 149.768C445.68 150.714 446.447 151.481 447.393 151.481Z" fill="#D6ECFF"/>
<path d="M463.53 151.481C464.476 151.481 465.243 150.714 465.243 149.768C465.243 148.822 464.476 148.055 463.53 148.055C462.583 148.055 461.816 148.822 461.816 149.768C461.816 150.714 462.583 151.481 463.53 151.481Z" fill="#D6ECFF"/>
<path d="M479.666 151.481C480.613 151.481 481.38 150.714 481.38 149.768C481.38 148.822 480.613 148.055 479.666 148.055C478.72 148.055 477.953 148.822 477.953 149.768C477.953 150.714 478.72 151.481 479.666 151.481Z" fill="#D6ECFF"/>
<path d="M366.721 166.106C367.667 166.106 368.434 165.339 368.434 164.393C368.434 163.447 367.667 162.68 366.721 162.68C365.775 162.68 365.008 163.447 365.008 164.393C365.008 165.339 365.775 166.106 366.721 166.106Z" fill="#D6ECFF"/>
<path d="M382.858 166.106C383.804 166.106 384.571 165.339 384.571 164.393C384.571 163.447 383.804 162.68 382.858 162.68C381.912 162.68 381.145 163.447 381.145 164.393C381.145 165.339 381.912 166.106 382.858 166.106Z" fill="#D6ECFF"/>
<path d="M398.995 166.106C399.941 166.106 400.708 165.339 400.708 164.393C400.708 163.447 399.941 162.68 398.995 162.68C398.048 162.68 397.281 163.447 397.281 164.393C397.281 165.339 398.048 166.106 398.995 166.106Z" fill="#D6ECFF"/>
<path d="M415.131 166.106C416.078 166.106 416.845 165.339 416.845 164.393C416.845 163.447 416.078 162.68 415.131 162.68C414.185 162.68 413.418 163.447 413.418 164.393C413.418 165.339 414.185 166.106 415.131 166.106Z" fill="#D6ECFF"/>
<path d="M431.268 166.106C432.214 166.106 432.981 165.339 432.981 164.393C432.981 163.447 432.214 162.68 431.268 162.68C430.322 162.68 429.555 163.447 429.555 164.393C429.555 165.339 430.322 166.106 431.268 166.106Z" fill="#D6ECFF"/>
<path d="M447.393 166.106C448.339 166.106 449.106 165.339 449.106 164.393C449.106 163.447 448.339 162.68 447.393 162.68C446.447 162.68 445.68 163.447 445.68 164.393C445.68 165.339 446.447 166.106 447.393 166.106Z" fill="#D6ECFF"/>
<path d="M463.53 166.106C464.476 166.106 465.243 165.339 465.243 164.393C465.243 163.447 464.476 162.68 463.53 162.68C462.583 162.68 461.816 163.447 461.816 164.393C461.816 165.339 462.583 166.106 463.53 166.106Z" fill="#D6ECFF"/>
<path d="M479.666 166.106C480.613 166.106 481.38 165.339 481.38 164.393C481.38 163.447 480.613 162.68 479.666 162.68C478.72 162.68 477.953 163.447 477.953 164.393C477.953 165.339 478.72 166.106 479.666 166.106Z" fill="#D6ECFF"/>
<path d="M366.721 180.733C367.667 180.733 368.434 179.966 368.434 179.02C368.434 178.074 367.667 177.307 366.721 177.307C365.775 177.307 365.008 178.074 365.008 179.02C365.008 179.966 365.775 180.733 366.721 180.733Z" fill="#D6ECFF"/>
<path d="M382.858 180.733C383.804 180.733 384.571 179.966 384.571 179.02C384.571 178.074 383.804 177.307 382.858 177.307C381.912 177.307 381.145 178.074 381.145 179.02C381.145 179.966 381.912 180.733 382.858 180.733Z" fill="#D6ECFF"/>
<path d="M398.995 180.733C399.941 180.733 400.708 179.966 400.708 179.02C400.708 178.074 399.941 177.307 398.995 177.307C398.048 177.307 397.281 178.074 397.281 179.02C397.281 179.966 398.048 180.733 398.995 180.733Z" fill="#D6ECFF"/>
<path d="M415.131 180.733C416.078 180.733 416.845 179.966 416.845 179.02C416.845 178.074 416.078 177.307 415.131 177.307C414.185 177.307 413.418 178.074 413.418 179.02C413.418 179.966 414.185 180.733 415.131 180.733Z" fill="#D6ECFF"/>
<path d="M431.268 180.733C432.214 180.733 432.981 179.966 432.981 179.02C432.981 178.074 432.214 177.307 431.268 177.307C430.322 177.307 429.555 178.074 429.555 179.02C429.555 179.966 430.322 180.733 431.268 180.733Z" fill="#D6ECFF"/>
<path d="M447.393 180.733C448.339 180.733 449.106 179.966 449.106 179.02C449.106 178.074 448.339 177.307 447.393 177.307C446.447 177.307 445.68 178.074 445.68 179.02C445.68 179.966 446.447 180.733 447.393 180.733Z" fill="#D6ECFF"/>
<path d="M463.53 180.733C464.476 180.733 465.243 179.966 465.243 179.02C465.243 178.074 464.476 177.307 463.53 177.307C462.583 177.307 461.816 178.074 461.816 179.02C461.816 179.966 462.583 180.733 463.53 180.733Z" fill="#D6ECFF"/>
<path d="M479.666 180.733C480.613 180.733 481.38 179.966 481.38 179.02C481.38 178.074 480.613 177.307 479.666 177.307C478.72 177.307 477.953 178.074 477.953 179.02C477.953 179.966 478.72 180.733 479.666 180.733Z" fill="#D6ECFF"/>
<path d="M366.721 195.345C367.667 195.345 368.434 194.578 368.434 193.631C368.434 192.685 367.667 191.918 366.721 191.918C365.775 191.918 365.008 192.685 365.008 193.631C365.008 194.578 365.775 195.345 366.721 195.345Z" fill="#D6ECFF"/>
<path d="M382.858 195.345C383.804 195.345 384.571 194.578 384.571 193.631C384.571 192.685 383.804 191.918 382.858 191.918C381.912 191.918 381.145 192.685 381.145 193.631C381.145 194.578 381.912 195.345 382.858 195.345Z" fill="#D6ECFF"/>
<path d="M398.995 195.345C399.941 195.345 400.708 194.578 400.708 193.631C400.708 192.685 399.941 191.918 398.995 191.918C398.048 191.918 397.281 192.685 397.281 193.631C397.281 194.578 398.048 195.345 398.995 195.345Z" fill="#D6ECFF"/>
<path d="M415.131 195.345C416.078 195.345 416.845 194.578 416.845 193.631C416.845 192.685 416.078 191.918 415.131 191.918C414.185 191.918 413.418 192.685 413.418 193.631C413.418 194.578 414.185 195.345 415.131 195.345Z" fill="#D6ECFF"/>
<path d="M431.268 195.345C432.214 195.345 432.981 194.578 432.981 193.631C432.981 192.685 432.214 191.918 431.268 191.918C430.322 191.918 429.555 192.685 429.555 193.631C429.555 194.578 430.322 195.345 431.268 195.345Z" fill="#D6ECFF"/>
<path d="M447.393 195.345C448.339 195.345 449.106 194.578 449.106 193.631C449.106 192.685 448.339 191.918 447.393 191.918C446.447 191.918 445.68 192.685 445.68 193.631C445.68 194.578 446.447 195.345 447.393 195.345Z" fill="#D6ECFF"/>
<path d="M463.53 195.345C464.476 195.345 465.243 194.578 465.243 193.631C465.243 192.685 464.476 191.918 463.53 191.918C462.583 191.918 461.816 192.685 461.816 193.631C461.816 194.578 462.583 195.345 463.53 195.345Z" fill="#D6ECFF"/>
<path d="M479.666 195.345C480.613 195.345 481.38 194.578 481.38 193.631C481.38 192.685 480.613 191.918 479.666 191.918C478.72 191.918 477.953 192.685 477.953 193.631C477.953 194.578 478.72 195.345 479.666 195.345Z" fill="#D6ECFF"/>
<path d="M366.721 209.97C367.667 209.97 368.434 209.203 368.434 208.256C368.434 207.31 367.667 206.543 366.721 206.543C365.775 206.543 365.008 207.31 365.008 208.256C365.008 209.203 365.775 209.97 366.721 209.97Z" fill="#D6ECFF"/>
<path d="M382.858 209.97C383.804 209.97 384.571 209.203 384.571 208.256C384.571 207.31 383.804 206.543 382.858 206.543C381.912 206.543 381.145 207.31 381.145 208.256C381.145 209.203 381.912 209.97 382.858 209.97Z" fill="#D6ECFF"/>
<path d="M398.995 209.97C399.941 209.97 400.708 209.203 400.708 208.256C400.708 207.31 399.941 206.543 398.995 206.543C398.048 206.543 397.281 207.31 397.281 208.256C397.281 209.203 398.048 209.97 398.995 209.97Z" fill="#D6ECFF"/>
<path d="M415.131 209.97C416.078 209.97 416.845 209.203 416.845 208.256C416.845 207.31 416.078 206.543 415.131 206.543C414.185 206.543 413.418 207.31 413.418 208.256C413.418 209.203 414.185 209.97 415.131 209.97Z" fill="#D6ECFF"/>
<path d="M431.268 209.97C432.214 209.97 432.981 209.203 432.981 208.256C432.981 207.31 432.214 206.543 431.268 206.543C430.322 206.543 429.555 207.31 429.555 208.256C429.555 209.203 430.322 209.97 431.268 209.97Z" fill="#D6ECFF"/>
<path d="M447.393 209.97C448.339 209.97 449.106 209.203 449.106 208.256C449.106 207.31 448.339 206.543 447.393 206.543C446.447 206.543 445.68 207.31 445.68 208.256C445.68 209.203 446.447 209.97 447.393 209.97Z" fill="#D6ECFF"/>
<path d="M463.53 209.97C464.476 209.97 465.243 209.203 465.243 208.256C465.243 207.31 464.476 206.543 463.53 206.543C462.583 206.543 461.816 207.31 461.816 208.256C461.816 209.203 462.583 209.97 463.53 209.97Z" fill="#D6ECFF"/>
<path d="M479.666 209.97C480.613 209.97 481.38 209.203 481.38 208.256C481.38 207.31 480.613 206.543 479.666 206.543C478.72 206.543 477.953 207.31 477.953 208.256C477.953 209.203 478.72 209.97 479.666 209.97Z" fill="#D6ECFF"/>
<path d="M366.721 224.595C367.667 224.595 368.434 223.828 368.434 222.881C368.434 221.935 367.667 221.168 366.721 221.168C365.775 221.168 365.008 221.935 365.008 222.881C365.008 223.828 365.775 224.595 366.721 224.595Z" fill="#D6ECFF"/>
<path d="M382.858 224.595C383.804 224.595 384.571 223.828 384.571 222.881C384.571 221.935 383.804 221.168 382.858 221.168C381.912 221.168 381.145 221.935 381.145 222.881C381.145 223.828 381.912 224.595 382.858 224.595Z" fill="#D6ECFF"/>
<path d="M398.995 224.595C399.941 224.595 400.708 223.828 400.708 222.881C400.708 221.935 399.941 221.168 398.995 221.168C398.048 221.168 397.281 221.935 397.281 222.881C397.281 223.828 398.048 224.595 398.995 224.595Z" fill="#D6ECFF"/>
<path d="M415.131 224.595C416.078 224.595 416.845 223.828 416.845 222.881C416.845 221.935 416.078 221.168 415.131 221.168C414.185 221.168 413.418 221.935 413.418 222.881C413.418 223.828 414.185 224.595 415.131 224.595Z" fill="#D6ECFF"/>
<path d="M431.268 224.595C432.214 224.595 432.981 223.828 432.981 222.881C432.981 221.935 432.214 221.168 431.268 221.168C430.322 221.168 429.555 221.935 429.555 222.881C429.555 223.828 430.322 224.595 431.268 224.595Z" fill="#D6ECFF"/>
<path d="M447.393 224.595C448.339 224.595 449.106 223.828 449.106 222.881C449.106 221.935 448.339 221.168 447.393 221.168C446.447 221.168 445.68 221.935 445.68 222.881C445.68 223.828 446.447 224.595 447.393 224.595Z" fill="#D6ECFF"/>
<path d="M463.53 224.595C464.476 224.595 465.243 223.828 465.243 222.881C465.243 221.935 464.476 221.168 463.53 221.168C462.583 221.168 461.816 221.935 461.816 222.881C461.816 223.828 462.583 224.595 463.53 224.595Z" fill="#D6ECFF"/>
<path d="M479.666 224.595C480.613 224.595 481.38 223.828 481.38 222.881C481.38 221.935 480.613 221.168 479.666 221.168C478.72 221.168 477.953 221.935 477.953 222.881C477.953 223.828 478.72 224.595 479.666 224.595Z" fill="#D6ECFF"/>
<path d="M366.721 239.22C367.667 239.22 368.434 238.453 368.434 237.506C368.434 236.56 367.667 235.793 366.721 235.793C365.775 235.793 365.008 236.56 365.008 237.506C365.008 238.453 365.775 239.22 366.721 239.22Z" fill="#D6ECFF"/>
<path d="M382.858 239.22C383.804 239.22 384.571 238.453 384.571 237.506C384.571 236.56 383.804 235.793 382.858 235.793C381.912 235.793 381.145 236.56 381.145 237.506C381.145 238.453 381.912 239.22 382.858 239.22Z" fill="#D6ECFF"/>
<path d="M398.995 239.22C399.941 239.22 400.708 238.453 400.708 237.506C400.708 236.56 399.941 235.793 398.995 235.793C398.048 235.793 397.281 236.56 397.281 237.506C397.281 238.453 398.048 239.22 398.995 239.22Z" fill="#D6ECFF"/>
<path d="M415.131 239.22C416.078 239.22 416.845 238.453 416.845 237.506C416.845 236.56 416.078 235.793 415.131 235.793C414.185 235.793 413.418 236.56 413.418 237.506C413.418 238.453 414.185 239.22 415.131 239.22Z" fill="#D6ECFF"/>
<path d="M431.268 239.22C432.214 239.22 432.981 238.453 432.981 237.506C432.981 236.56 432.214 235.793 431.268 235.793C430.322 235.793 429.555 236.56 429.555 237.506C429.555 238.453 430.322 239.22 431.268 239.22Z" fill="#D6ECFF"/>
<path d="M447.393 239.22C448.339 239.22 449.106 238.453 449.106 237.506C449.106 236.56 448.339 235.793 447.393 235.793C446.447 235.793 445.68 236.56 445.68 237.506C445.68 238.453 446.447 239.22 447.393 239.22Z" fill="#D6ECFF"/>
<path d="M463.53 239.22C464.476 239.22 465.243 238.453 465.243 237.506C465.243 236.56 464.476 235.793 463.53 235.793C462.583 235.793 461.816 236.56 461.816 237.506C461.816 238.453 462.583 239.22 463.53 239.22Z" fill="#D6ECFF"/>
<path d="M479.666 239.22C480.613 239.22 481.38 238.453 481.38 237.506C481.38 236.56 480.613 235.793 479.666 235.793C478.72 235.793 477.953 236.56 477.953 237.506C477.953 238.453 478.72 239.22 479.666 239.22Z" fill="#D6ECFF"/>
<path d="M366.721 253.835C367.667 253.835 368.434 253.068 368.434 252.122C368.434 251.175 367.667 250.408 366.721 250.408C365.775 250.408 365.008 251.175 365.008 252.122C365.008 253.068 365.775 253.835 366.721 253.835Z" fill="#D6ECFF"/>
<path d="M382.858 253.835C383.804 253.835 384.571 253.068 384.571 252.122C384.571 251.175 383.804 250.408 382.858 250.408C381.912 250.408 381.145 251.175 381.145 252.122C381.145 253.068 381.912 253.835 382.858 253.835Z" fill="#D6ECFF"/>
<path d="M398.995 253.835C399.941 253.835 400.708 253.068 400.708 252.122C400.708 251.175 399.941 250.408 398.995 250.408C398.048 250.408 397.281 251.175 397.281 252.122C397.281 253.068 398.048 253.835 398.995 253.835Z" fill="#D6ECFF"/>
<path d="M415.131 253.835C416.078 253.835 416.845 253.068 416.845 252.122C416.845 251.175 416.078 250.408 415.131 250.408C414.185 250.408 413.418 251.175 413.418 252.122C413.418 253.068 414.185 253.835 415.131 253.835Z" fill="#D6ECFF"/>
<path d="M431.268 253.835C432.214 253.835 432.981 253.068 432.981 252.122C432.981 251.175 432.214 250.408 431.268 250.408C430.322 250.408 429.555 251.175 429.555 252.122C429.555 253.068 430.322 253.835 431.268 253.835Z" fill="#D6ECFF"/>
<path d="M447.393 253.835C448.339 253.835 449.106 253.068 449.106 252.122C449.106 251.175 448.339 250.408 447.393 250.408C446.447 250.408 445.68 251.175 445.68 252.122C445.68 253.068 446.447 253.835 447.393 253.835Z" fill="#D6ECFF"/>
<path d="M463.53 253.835C464.476 253.835 465.243 253.068 465.243 252.122C465.243 251.175 464.476 250.408 463.53 250.408C462.583 250.408 461.816 251.175 461.816 252.122C461.816 253.068 462.583 253.835 463.53 253.835Z" fill="#D6ECFF"/>
<path d="M479.666 253.835C480.613 253.835 481.38 253.068 481.38 252.122C481.38 251.175 480.613 250.408 479.666 250.408C478.72 250.408 477.953 251.175 477.953 252.122C477.953 253.068 478.72 253.835 479.666 253.835Z" fill="#D6ECFF"/>
</g>
<mask id="mask1_819_18074" style="mask-type:luminance" maskUnits="userSpaceOnUse" x="228" y="414" width="118" height="255">
<path d="M345.545 414.451H228.176V668.596H345.545V414.451Z" fill="white"/>
</mask>
<g mask="url(#mask1_819_18074)">
<path d="M229.889 417.878C230.835 417.878 231.602 417.111 231.602 416.165C231.602 415.218 230.835 414.451 229.889 414.451C228.943 414.451 228.176 415.218 228.176 416.165C228.176 417.111 228.943 417.878 229.889 417.878Z" fill="#D6ECFF"/>
<path d="M246.026 417.878C246.972 417.878 247.739 417.111 247.739 416.165C247.739 415.218 246.972 414.451 246.026 414.451C245.08 414.451 244.312 415.218 244.312 416.165C244.312 417.111 245.08 417.878 246.026 417.878Z" fill="#D6ECFF"/>
<path d="M262.163 417.878C263.109 417.878 263.876 417.111 263.876 416.165C263.876 415.218 263.109 414.451 262.163 414.451C261.216 414.451 260.449 415.218 260.449 416.165C260.449 417.111 261.216 417.878 262.163 417.878Z" fill="#D6ECFF"/>
<path d="M278.288 417.878C279.234 417.878 280.001 417.111 280.001 416.165C280.001 415.218 279.234 414.451 278.288 414.451C277.341 414.451 276.574 415.218 276.574 416.165C276.574 417.111 277.341 417.878 278.288 417.878Z" fill="#D6ECFF"/>
<path d="M294.424 417.878C295.371 417.878 296.138 417.111 296.138 416.165C296.138 415.218 295.371 414.451 294.424 414.451C293.478 414.451 292.711 415.218 292.711 416.165C292.711 417.111 293.478 417.878 294.424 417.878Z" fill="#D6ECFF"/>
<path d="M310.561 417.878C311.507 417.878 312.274 417.111 312.274 416.165C312.274 415.218 311.507 414.451 310.561 414.451C309.615 414.451 308.848 415.218 308.848 416.165C308.848 417.111 309.615 417.878 310.561 417.878Z" fill="#D6ECFF"/>
<path d="M326.698 417.878C327.644 417.878 328.411 417.111 328.411 416.165C328.411 415.218 327.644 414.451 326.698 414.451C325.751 414.451 324.984 415.218 324.984 416.165C324.984 417.111 325.751 417.878 326.698 417.878Z" fill="#D6ECFF"/>
<path d="M342.834 417.878C343.781 417.878 344.548 417.111 344.548 416.165C344.548 415.218 343.781 414.451 342.834 414.451C341.888 414.451 341.121 415.218 341.121 416.165C341.121 417.111 341.888 417.878 342.834 417.878Z" fill="#D6ECFF"/>
<path d="M229.889 432.491C230.835 432.491 231.602 431.724 231.602 430.778C231.602 429.832 230.835 429.064 229.889 429.064C228.943 429.064 228.176 429.832 228.176 430.778C228.176 431.724 228.943 432.491 229.889 432.491Z" fill="#D6ECFF"/>
<path d="M246.026 432.491C246.972 432.491 247.739 431.724 247.739 430.778C247.739 429.832 246.972 429.064 246.026 429.064C245.08 429.064 244.312 429.832 244.312 430.778C244.312 431.724 245.08 432.491 246.026 432.491Z" fill="#D6ECFF"/>
<path d="M262.163 432.491C263.109 432.491 263.876 431.724 263.876 430.778C263.876 429.832 263.109 429.064 262.163 429.064C261.216 429.064 260.449 429.832 260.449 430.778C260.449 431.724 261.216 432.491 262.163 432.491Z" fill="#D6ECFF"/>
<path d="M278.288 432.491C279.234 432.491 280.001 431.724 280.001 430.778C280.001 429.832 279.234 429.064 278.288 429.064C277.341 429.064 276.574 429.832 276.574 430.778C276.574 431.724 277.341 432.491 278.288 432.491Z" fill="#D6ECFF"/>
<path d="M294.424 432.491C295.371 432.491 296.138 431.724 296.138 430.778C296.138 429.832 295.371 429.064 294.424 429.064C293.478 429.064 292.711 429.832 292.711 430.778C292.711 431.724 293.478 432.491 294.424 432.491Z" fill="#D6ECFF"/>
<path d="M310.561 432.491C311.507 432.491 312.274 431.724 312.274 430.778C312.274 429.832 311.507 429.064 310.561 429.064C309.615 429.064 308.848 429.832 308.848 430.778C308.848 431.724 309.615 432.491 310.561 432.491Z" fill="#D6ECFF"/>
<path d="M326.698 432.491C327.644 432.491 328.411 431.724 328.411 430.778C328.411 429.832 327.644 429.064 326.698 429.064C325.751 429.064 324.984 429.832 324.984 430.778C324.984 431.724 325.751 432.491 326.698 432.491Z" fill="#D6ECFF"/>
<path d="M342.834 432.491C343.781 432.491 344.548 431.724 344.548 430.778C344.548 429.832 343.781 429.064 342.834 429.064C341.888 429.064 341.121 429.832 341.121 430.778C341.121 431.724 341.888 432.491 342.834 432.491Z" fill="#D6ECFF"/>
<path d="M229.889 447.114C230.835 447.114 231.602 446.347 231.602 445.401C231.602 444.455 230.835 443.688 229.889 443.688C228.943 443.688 228.176 444.455 228.176 445.401C228.176 446.347 228.943 447.114 229.889 447.114Z" fill="#D6ECFF"/>
<path d="M246.026 447.114C246.972 447.114 247.739 446.347 247.739 445.401C247.739 444.455 246.972 443.688 246.026 443.688C245.08 443.688 244.312 444.455 244.312 445.401C244.312 446.347 245.08 447.114 246.026 447.114Z" fill="#D6ECFF"/>
<path d="M262.163 447.114C263.109 447.114 263.876 446.347 263.876 445.401C263.876 444.455 263.109 443.688 262.163 443.688C261.216 443.688 260.449 444.455 260.449 445.401C260.449 446.347 261.216 447.114 262.163 447.114Z" fill="#D6ECFF"/>
<path d="M278.288 447.114C279.234 447.114 280.001 446.347 280.001 445.401C280.001 444.455 279.234 443.688 278.288 443.688C277.341 443.688 276.574 444.455 276.574 445.401C276.574 446.347 277.341 447.114 278.288 447.114Z" fill="#D6ECFF"/>
<path d="M294.424 447.114C295.371 447.114 296.138 446.347 296.138 445.401C296.138 444.455 295.371 443.688 294.424 443.688C293.478 443.688 292.711 444.455 292.711 445.401C292.711 446.347 293.478 447.114 294.424 447.114Z" fill="#D6ECFF"/>
<path d="M310.561 447.114C311.507 447.114 312.274 446.347 312.274 445.401C312.274 444.455 311.507 443.688 310.561 443.688C309.615 443.688 308.848 444.455 308.848 445.401C308.848 446.347 309.615 447.114 310.561 447.114Z" fill="#D6ECFF"/>
<path d="M326.698 447.114C327.644 447.114 328.411 446.347 328.411 445.401C328.411 444.455 327.644 443.688 326.698 443.688C325.751 443.688 324.984 444.455 324.984 445.401C324.984 446.347 325.751 447.114 326.698 447.114Z" fill="#D6ECFF"/>
<path d="M342.834 447.114C343.781 447.114 344.548 446.347 344.548 445.401C344.548 444.455 343.781 443.688 342.834 443.688C341.888 443.688 341.121 444.455 341.121 445.401C341.121 446.347 341.888 447.114 342.834 447.114Z" fill="#D6ECFF"/>
<path d="M229.889 461.741C230.835 461.741 231.602 460.974 231.602 460.028C231.602 459.082 230.835 458.314 229.889 458.314C228.943 458.314 228.176 459.082 228.176 460.028C228.176 460.974 228.943 461.741 229.889 461.741Z" fill="#D6ECFF"/>
<path d="M246.026 461.741C246.972 461.741 247.739 460.974 247.739 460.028C247.739 459.082 246.972 458.314 246.026 458.314C245.08 458.314 244.312 459.082 244.312 460.028C244.312 460.974 245.08 461.741 246.026 461.741Z" fill="#D6ECFF"/>
<path d="M262.163 461.741C263.109 461.741 263.876 460.974 263.876 460.028C263.876 459.082 263.109 458.314 262.163 458.314C261.216 458.314 260.449 459.082 260.449 460.028C260.449 460.974 261.216 461.741 262.163 461.741Z" fill="#D6ECFF"/>
<path d="M278.288 461.741C279.234 461.741 280.001 460.974 280.001 460.028C280.001 459.082 279.234 458.314 278.288 458.314C277.341 458.314 276.574 459.082 276.574 460.028C276.574 460.974 277.341 461.741 278.288 461.741Z" fill="#D6ECFF"/>
<path d="M294.424 461.741C295.371 461.741 296.138 460.974 296.138 460.028C296.138 459.082 295.371 458.314 294.424 458.314C293.478 458.314 292.711 459.082 292.711 460.028C292.711 460.974 293.478 461.741 294.424 461.741Z" fill="#D6ECFF"/>
<path d="M310.561 461.741C311.507 461.741 312.274 460.974 312.274 460.028C312.274 459.082 311.507 458.314 310.561 458.314C309.615 458.314 308.848 459.082 308.848 460.028C308.848 460.974 309.615 461.741 310.561 461.741Z" fill="#D6ECFF"/>
<path d="M326.698 461.741C327.644 461.741 328.411 460.974 328.411 460.028C328.411 459.082 327.644 458.314 326.698 458.314C325.751 458.314 324.984 459.082 324.984 460.028C324.984 460.974 325.751 461.741 326.698 461.741Z" fill="#D6ECFF"/>
<path d="M342.834 461.741C343.781 461.741 344.548 460.974 344.548 460.028C344.548 459.082 343.781 458.314 342.834 458.314C341.888 458.314 341.121 459.082 341.121 460.028C341.121 460.974 341.888 461.741 342.834 461.741Z" fill="#D6ECFF"/>
<path d="M229.889 476.354C230.835 476.354 231.602 475.587 231.602 474.641C231.602 473.695 230.835 472.928 229.889 472.928C228.943 472.928 228.176 473.695 228.176 474.641C228.176 475.587 228.943 476.354 229.889 476.354Z" fill="#D6ECFF"/>
<path d="M246.026 476.354C246.972 476.354 247.739 475.587 247.739 474.641C247.739 473.695 246.972 472.928 246.026 472.928C245.08 472.928 244.312 473.695 244.312 474.641C244.312 475.587 245.08 476.354 246.026 476.354Z" fill="#D6ECFF"/>
<path d="M262.163 476.354C263.109 476.354 263.876 475.587 263.876 474.641C263.876 473.695 263.109 472.928 262.163 472.928C261.216 472.928 260.449 473.695 260.449 474.641C260.449 475.587 261.216 476.354 262.163 476.354Z" fill="#D6ECFF"/>
<path d="M278.288 476.354C279.234 476.354 280.001 475.587 280.001 474.641C280.001 473.695 279.234 472.928 278.288 472.928C277.341 472.928 276.574 473.695 276.574 474.641C276.574 475.587 277.341 476.354 278.288 476.354Z" fill="#D6ECFF"/>
<path d="M294.424 476.354C295.371 476.354 296.138 475.587 296.138 474.641C296.138 473.695 295.371 472.928 294.424 472.928C293.478 472.928 292.711 473.695 292.711 474.641C292.711 475.587 293.478 476.354 294.424 476.354Z" fill="#D6ECFF"/>
<path d="M310.561 476.354C311.507 476.354 312.274 475.587 312.274 474.641C312.274 473.695 311.507 472.928 310.561 472.928C309.615 472.928 308.848 473.695 308.848 474.641C308.848 475.587 309.615 476.354 310.561 476.354Z" fill="#D6ECFF"/>
<path d="M326.698 476.354C327.644 476.354 328.411 475.587 328.411 474.641C328.411 473.695 327.644 472.928 326.698 472.928C325.751 472.928 324.984 473.695 324.984 474.641C324.984 475.587 325.751 476.354 326.698 476.354Z" fill="#D6ECFF"/>
<path d="M342.834 476.354C343.781 476.354 344.548 475.587 344.548 474.641C344.548 473.695 343.781 472.928 342.834 472.928C341.888 472.928 341.121 473.695 341.121 474.641C341.121 475.587 341.888 476.354 342.834 476.354Z" fill="#D6ECFF"/>
<path d="M229.889 490.981C230.835 490.981 231.602 490.214 231.602 489.268C231.602 488.322 230.835 487.555 229.889 487.555C228.943 487.555 228.176 488.322 228.176 489.268C228.176 490.214 228.943 490.981 229.889 490.981Z" fill="#D6ECFF"/>
<path d="M246.026 490.981C246.972 490.981 247.739 490.214 247.739 489.268C247.739 488.322 246.972 487.555 246.026 487.555C245.08 487.555 244.312 488.322 244.312 489.268C244.312 490.214 245.08 490.981 246.026 490.981Z" fill="#D6ECFF"/>
<path d="M262.163 490.981C263.109 490.981 263.876 490.214 263.876 489.268C263.876 488.322 263.109 487.555 262.163 487.555C261.216 487.555 260.449 488.322 260.449 489.268C260.449 490.214 261.216 490.981 262.163 490.981Z" fill="#D6ECFF"/>
<path d="M278.288 490.981C279.234 490.981 280.001 490.214 280.001 489.268C280.001 488.322 279.234 487.555 278.288 487.555C277.341 487.555 276.574 488.322 276.574 489.268C276.574 490.214 277.341 490.981 278.288 490.981Z" fill="#D6ECFF"/>
<path d="M294.424 490.981C295.371 490.981 296.138 490.214 296.138 489.268C296.138 488.322 295.371 487.555 294.424 487.555C293.478 487.555 292.711 488.322 292.711 489.268C292.711 490.214 293.478 490.981 294.424 490.981Z" fill="#D6ECFF"/>
<path d="M310.561 490.981C311.507 490.981 312.274 490.214 312.274 489.268C312.274 488.322 311.507 487.555 310.561 487.555C309.615 487.555 308.848 488.322 308.848 489.268C308.848 490.214 309.615 490.981 310.561 490.981Z" fill="#D6ECFF"/>
<path d="M326.698 490.981C327.644 490.981 328.411 490.214 328.411 489.268C328.411 488.322 327.644 487.555 326.698 487.555C325.751 487.555 324.984 488.322 324.984 489.268C324.984 490.214 325.751 490.981 326.698 490.981Z" fill="#D6ECFF"/>
<path d="M342.834 490.981C343.781 490.981 344.548 490.214 344.548 489.268C344.548 488.322 343.781 487.555 342.834 487.555C341.888 487.555 341.121 488.322 341.121 489.268C341.121 490.214 341.888 490.981 342.834 490.981Z" fill="#D6ECFF"/>
<path d="M229.889 505.604C230.835 505.604 231.602 504.837 231.602 503.891C231.602 502.945 230.835 502.178 229.889 502.178C228.943 502.178 228.176 502.945 228.176 503.891C228.176 504.837 228.943 505.604 229.889 505.604Z" fill="#D6ECFF"/>
<path d="M246.026 505.604C246.972 505.604 247.739 504.837 247.739 503.891C247.739 502.945 246.972 502.178 246.026 502.178C245.08 502.178 244.312 502.945 244.312 503.891C244.312 504.837 245.08 505.604 246.026 505.604Z" fill="#D6ECFF"/>
<path d="M262.163 505.604C263.109 505.604 263.876 504.837 263.876 503.891C263.876 502.945 263.109 502.178 262.163 502.178C261.216 502.178 260.449 502.945 260.449 503.891C260.449 504.837 261.216 505.604 262.163 505.604Z" fill="#D6ECFF"/>
<path d="M278.288 505.604C279.234 505.604 280.001 504.837 280.001 503.891C280.001 502.945 279.234 502.178 278.288 502.178C277.341 502.178 276.574 502.945 276.574 503.891C276.574 504.837 277.341 505.604 278.288 505.604Z" fill="#D6ECFF"/>
<path d="M294.424 505.604C295.371 505.604 296.138 504.837 296.138 503.891C296.138 502.945 295.371 502.178 294.424 502.178C293.478 502.178 292.711 502.945 292.711 503.891C292.711 504.837 293.478 505.604 294.424 505.604Z" fill="#D6ECFF"/>
<path d="M310.561 505.604C311.507 505.604 312.274 504.837 312.274 503.891C312.274 502.945 311.507 502.178 310.561 502.178C309.615 502.178 308.848 502.945 308.848 503.891C308.848 504.837 309.615 505.604 310.561 505.604Z" fill="#D6ECFF"/>
<path d="M326.698 505.604C327.644 505.604 328.411 504.837 328.411 503.891C328.411 502.945 327.644 502.178 326.698 502.178C325.751 502.178 324.984 502.945 324.984 503.891C324.984 504.837 325.751 505.604 326.698 505.604Z" fill="#D6ECFF"/>
<path d="M342.834 505.604C343.781 505.604 344.548 504.837 344.548 503.891C344.548 502.945 343.781 502.178 342.834 502.178C341.888 502.178 341.121 502.945 341.121 503.891C341.121 504.837 341.888 505.604 342.834 505.604Z" fill="#D6ECFF"/>
<path d="M229.889 520.231C230.835 520.231 231.602 519.464 231.602 518.518C231.602 517.572 230.835 516.805 229.889 516.805C228.943 516.805 228.176 517.572 228.176 518.518C228.176 519.464 228.943 520.231 229.889 520.231Z" fill="#D6ECFF"/>
<path d="M246.026 520.231C246.972 520.231 247.739 519.464 247.739 518.518C247.739 517.572 246.972 516.805 246.026 516.805C245.08 516.805 244.312 517.572 244.312 518.518C244.312 519.464 245.08 520.231 246.026 520.231Z" fill="#D6ECFF"/>
<path d="M262.163 520.231C263.109 520.231 263.876 519.464 263.876 518.518C263.876 517.572 263.109 516.805 262.163 516.805C261.216 516.805 260.449 517.572 260.449 518.518C260.449 519.464 261.216 520.231 262.163 520.231Z" fill="#D6ECFF"/>
<path d="M278.288 520.231C279.234 520.231 280.001 519.464 280.001 518.518C280.001 517.572 279.234 516.805 278.288 516.805C277.341 516.805 276.574 517.572 276.574 518.518C276.574 519.464 277.341 520.231 278.288 520.231Z" fill="#D6ECFF"/>
<path d="M294.424 520.231C295.371 520.231 296.138 519.464 296.138 518.518C296.138 517.572 295.371 516.805 294.424 516.805C293.478 516.805 292.711 517.572 292.711 518.518C292.711 519.464 293.478 520.231 294.424 520.231Z" fill="#D6ECFF"/>
<path d="M310.561 520.231C311.507 520.231 312.274 519.464 312.274 518.518C312.274 517.572 311.507 516.805 310.561 516.805C309.615 516.805 308.848 517.572 308.848 518.518C308.848 519.464 309.615 520.231 310.561 520.231Z" fill="#D6ECFF"/>
<path d="M326.698 520.231C327.644 520.231 328.411 519.464 328.411 518.518C328.411 517.572 327.644 516.805 326.698 516.805C325.751 516.805 324.984 517.572 324.984 518.518C324.984 519.464 325.751 520.231 326.698 520.231Z" fill="#D6ECFF"/>
<path d="M342.834 520.231C343.781 520.231 344.548 519.464 344.548 518.518C344.548 517.572 343.781 516.805 342.834 516.805C341.888 516.805 341.121 517.572 341.121 518.518C341.121 519.464 341.888 520.231 342.834 520.231Z" fill="#D6ECFF"/>
<path d="M229.889 534.845C230.835 534.845 231.602 534.078 231.602 533.131C231.602 532.185 230.835 531.418 229.889 531.418C228.943 531.418 228.176 532.185 228.176 533.131C228.176 534.078 228.943 534.845 229.889 534.845Z" fill="#D6ECFF"/>
<path d="M246.026 534.845C246.972 534.845 247.739 534.078 247.739 533.131C247.739 532.185 246.972 531.418 246.026 531.418C245.08 531.418 244.312 532.185 244.312 533.131C244.312 534.078 245.08 534.845 246.026 534.845Z" fill="#D6ECFF"/>
<path d="M262.163 534.845C263.109 534.845 263.876 534.078 263.876 533.131C263.876 532.185 263.109 531.418 262.163 531.418C261.216 531.418 260.449 532.185 260.449 533.131C260.449 534.078 261.216 534.845 262.163 534.845Z" fill="#D6ECFF"/>
<path d="M278.288 534.845C279.234 534.845 280.001 534.078 280.001 533.131C280.001 532.185 279.234 531.418 278.288 531.418C277.341 531.418 276.574 532.185 276.574 533.131C276.574 534.078 277.341 534.845 278.288 534.845Z" fill="#D6ECFF"/>
<path d="M294.424 534.845C295.371 534.845 296.138 534.078 296.138 533.131C296.138 532.185 295.371 531.418 294.424 531.418C293.478 531.418 292.711 532.185 292.711 533.131C292.711 534.078 293.478 534.845 294.424 534.845Z" fill="#D6ECFF"/>
<path d="M310.561 534.845C311.507 534.845 312.274 534.078 312.274 533.131C312.274 532.185 311.507 531.418 310.561 531.418C309.615 531.418 308.848 532.185 308.848 533.131C308.848 534.078 309.615 534.845 310.561 534.845Z" fill="#D6ECFF"/>
<path d="M326.698 534.845C327.644 534.845 328.411 534.078 328.411 533.131C328.411 532.185 327.644 531.418 326.698 531.418C325.751 531.418 324.984 532.185 324.984 533.131C324.984 534.078 325.751 534.845 326.698 534.845Z" fill="#D6ECFF"/>
<path d="M342.834 534.845C343.781 534.845 344.548 534.078 344.548 533.131C344.548 532.185 343.781 531.418 342.834 531.418C341.888 531.418 341.121 532.185 341.121 533.131C341.121 534.078 341.888 534.845 342.834 534.845Z" fill="#D6ECFF"/>
<path d="M229.889 549.47C230.835 549.47 231.602 548.703 231.602 547.756C231.602 546.81 230.835 546.043 229.889 546.043C228.943 546.043 228.176 546.81 228.176 547.756C228.176 548.703 228.943 549.47 229.889 549.47Z" fill="#D6ECFF"/>
<path d="M246.026 549.47C246.972 549.47 247.739 548.703 247.739 547.756C247.739 546.81 246.972 546.043 246.026 546.043C245.08 546.043 244.312 546.81 244.312 547.756C244.312 548.703 245.08 549.47 246.026 549.47Z" fill="#D6ECFF"/>
<path d="M262.163 549.47C263.109 549.47 263.876 548.703 263.876 547.756C263.876 546.81 263.109 546.043 262.163 546.043C261.216 546.043 260.449 546.81 260.449 547.756C260.449 548.703 261.216 549.47 262.163 549.47Z" fill="#D6ECFF"/>
<path d="M278.288 549.47C279.234 549.47 280.001 548.703 280.001 547.756C280.001 546.81 279.234 546.043 278.288 546.043C277.341 546.043 276.574 546.81 276.574 547.756C276.574 548.703 277.341 549.47 278.288 549.47Z" fill="#D6ECFF"/>
<path d="M294.424 549.47C295.371 549.47 296.138 548.703 296.138 547.756C296.138 546.81 295.371 546.043 294.424 546.043C293.478 546.043 292.711 546.81 292.711 547.756C292.711 548.703 293.478 549.47 294.424 549.47Z" fill="#D6ECFF"/>
<path d="M310.561 549.47C311.507 549.47 312.274 548.703 312.274 547.756C312.274 546.81 311.507 546.043 310.561 546.043C309.615 546.043 308.848 546.81 308.848 547.756C308.848 548.703 309.615 549.47 310.561 549.47Z" fill="#D6ECFF"/>
<path d="M326.698 549.47C327.644 549.47 328.411 548.703 328.411 547.756C328.411 546.81 327.644 546.043 326.698 546.043C325.751 546.043 324.984 546.81 324.984 547.756C324.984 548.703 325.751 549.47 326.698 549.47Z" fill="#D6ECFF"/>
<path d="M342.834 549.47C343.781 549.47 344.548 548.703 344.548 547.756C344.548 546.81 343.781 546.043 342.834 546.043C341.888 546.043 341.121 546.81 341.121 547.756C341.121 548.703 341.888 549.47 342.834 549.47Z" fill="#D6ECFF"/>
<path d="M229.889 564.093C230.835 564.093 231.602 563.326 231.602 562.379C231.602 561.433 230.835 560.666 229.889 560.666C228.943 560.666 228.176 561.433 228.176 562.379C228.176 563.326 228.943 564.093 229.889 564.093Z" fill="#D6ECFF"/>
<path d="M246.026 564.093C246.972 564.093 247.739 563.326 247.739 562.379C247.739 561.433 246.972 560.666 246.026 560.666C245.08 560.666 244.312 561.433 244.312 562.379C244.312 563.326 245.08 564.093 246.026 564.093Z" fill="#D6ECFF"/>
<path d="M262.163 564.093C263.109 564.093 263.876 563.326 263.876 562.379C263.876 561.433 263.109 560.666 262.163 560.666C261.216 560.666 260.449 561.433 260.449 562.379C260.449 563.326 261.216 564.093 262.163 564.093Z" fill="#D6ECFF"/>
<path d="M278.288 564.093C279.234 564.093 280.001 563.326 280.001 562.379C280.001 561.433 279.234 560.666 278.288 560.666C277.341 560.666 276.574 561.433 276.574 562.379C276.574 563.326 277.341 564.093 278.288 564.093Z" fill="#D6ECFF"/>
<path d="M294.424 564.093C295.371 564.093 296.138 563.326 296.138 562.379C296.138 561.433 295.371 560.666 294.424 560.666C293.478 560.666 292.711 561.433 292.711 562.379C292.711 563.326 293.478 564.093 294.424 564.093Z" fill="#D6ECFF"/>
<path d="M310.561 564.093C311.507 564.093 312.274 563.326 312.274 562.379C312.274 561.433 311.507 560.666 310.561 560.666C309.615 560.666 308.848 561.433 308.848 562.379C308.848 563.326 309.615 564.093 310.561 564.093Z" fill="#D6ECFF"/>
<path d="M326.698 564.093C327.644 564.093 328.411 563.326 328.411 562.379C328.411 561.433 327.644 560.666 326.698 560.666C325.751 560.666 324.984 561.433 324.984 562.379C324.984 563.326 325.751 564.093 326.698 564.093Z" fill="#D6ECFF"/>
<path d="M342.834 564.093C343.781 564.093 344.548 563.326 344.548 562.379C344.548 561.433 343.781 560.666 342.834 560.666C341.888 560.666 341.121 561.433 341.121 562.379C341.121 563.326 341.888 564.093 342.834 564.093Z" fill="#D6ECFF"/>
<path d="M229.889 578.72C230.835 578.72 231.602 577.953 231.602 577.006C231.602 576.06 230.835 575.293 229.889 575.293C228.943 575.293 228.176 576.06 228.176 577.006C228.176 577.953 228.943 578.72 229.889 578.72Z" fill="#D6ECFF"/>
<path d="M246.026 578.72C246.972 578.72 247.739 577.953 247.739 577.006C247.739 576.06 246.972 575.293 246.026 575.293C245.08 575.293 244.312 576.06 244.312 577.006C244.312 577.953 245.08 578.72 246.026 578.72Z" fill="#D6ECFF"/>
<path d="M262.163 578.72C263.109 578.72 263.876 577.953 263.876 577.006C263.876 576.06 263.109 575.293 262.163 575.293C261.216 575.293 260.449 576.06 260.449 577.006C260.449 577.953 261.216 578.72 262.163 578.72Z" fill="#D6ECFF"/>
<path d="M278.288 578.72C279.234 578.72 280.001 577.953 280.001 577.006C280.001 576.06 279.234 575.293 278.288 575.293C277.341 575.293 276.574 576.06 276.574 577.006C276.574 577.953 277.341 578.72 278.288 578.72Z" fill="#D6ECFF"/>
<path d="M294.424 578.72C295.371 578.72 296.138 577.953 296.138 577.006C296.138 576.06 295.371 575.293 294.424 575.293C293.478 575.293 292.711 576.06 292.711 577.006C292.711 577.953 293.478 578.72 294.424 578.72Z" fill="#D6ECFF"/>
<path d="M310.561 578.72C311.507 578.72 312.274 577.953 312.274 577.006C312.274 576.06 311.507 575.293 310.561 575.293C309.615 575.293 308.848 576.06 308.848 577.006C308.848 577.953 309.615 578.72 310.561 578.72Z" fill="#D6ECFF"/>
<path d="M326.698 578.72C327.644 578.72 328.411 577.953 328.411 577.006C328.411 576.06 327.644 575.293 326.698 575.293C325.751 575.293 324.984 576.06 324.984 577.006C324.984 577.953 325.751 578.72 326.698 578.72Z" fill="#D6ECFF"/>
<path d="M342.834 578.72C343.781 578.72 344.548 577.953 344.548 577.006C344.548 576.06 343.781 575.293 342.834 575.293C341.888 575.293 341.121 576.06 341.121 577.006C341.121 577.953 341.888 578.72 342.834 578.72Z" fill="#D6ECFF"/>
<path d="M229.889 593.333C230.835 593.333 231.602 592.566 231.602 591.62C231.602 590.673 230.835 589.906 229.889 589.906C228.943 589.906 228.176 590.673 228.176 591.62C228.176 592.566 228.943 593.333 229.889 593.333Z" fill="#D6ECFF"/>
<path d="M246.026 593.333C246.972 593.333 247.739 592.566 247.739 591.62C247.739 590.673 246.972 589.906 246.026 589.906C245.08 589.906 244.312 590.673 244.312 591.62C244.312 592.566 245.08 593.333 246.026 593.333Z" fill="#D6ECFF"/>
<path d="M262.163 593.333C263.109 593.333 263.876 592.566 263.876 591.62C263.876 590.673 263.109 589.906 262.163 589.906C261.216 589.906 260.449 590.673 260.449 591.62C260.449 592.566 261.216 593.333 262.163 593.333Z" fill="#D6ECFF"/>
<path d="M278.288 593.333C279.234 593.333 280.001 592.566 280.001 591.62C280.001 590.673 279.234 589.906 278.288 589.906C277.341 589.906 276.574 590.673 276.574 591.62C276.574 592.566 277.341 593.333 278.288 593.333Z" fill="#D6ECFF"/>
<path d="M294.424 593.333C295.371 593.333 296.138 592.566 296.138 591.62C296.138 590.673 295.371 589.906 294.424 589.906C293.478 589.906 292.711 590.673 292.711 591.62C292.711 592.566 293.478 593.333 294.424 593.333Z" fill="#D6ECFF"/>
<path d="M310.561 593.333C311.507 593.333 312.274 592.566 312.274 591.62C312.274 590.673 311.507 589.906 310.561 589.906C309.615 589.906 308.848 590.673 308.848 591.62C308.848 592.566 309.615 593.333 310.561 593.333Z" fill="#D6ECFF"/>
<path d="M326.698 593.333C327.644 593.333 328.411 592.566 328.411 591.62C328.411 590.673 327.644 589.906 326.698 589.906C325.751 589.906 324.984 590.673 324.984 591.62C324.984 592.566 325.751 593.333 326.698 593.333Z" fill="#D6ECFF"/>
<path d="M342.834 593.333C343.781 593.333 344.548 592.566 344.548 591.62C344.548 590.673 343.781 589.906 342.834 589.906C341.888 589.906 341.121 590.673 341.121 591.62C341.121 592.566 341.888 593.333 342.834 593.333Z" fill="#D6ECFF"/>
<path d="M229.889 607.956C230.835 607.956 231.602 607.189 231.602 606.243C231.602 605.296 230.835 604.529 229.889 604.529C228.943 604.529 228.176 605.296 228.176 606.243C228.176 607.189 228.943 607.956 229.889 607.956Z" fill="#D6ECFF"/>
<path d="M246.026 607.956C246.972 607.956 247.739 607.189 247.739 606.243C247.739 605.296 246.972 604.529 246.026 604.529C245.08 604.529 244.312 605.296 244.312 606.243C244.312 607.189 245.08 607.956 246.026 607.956Z" fill="#D6ECFF"/>
<path d="M262.163 607.956C263.109 607.956 263.876 607.189 263.876 606.243C263.876 605.296 263.109 604.529 262.163 604.529C261.216 604.529 260.449 605.296 260.449 606.243C260.449 607.189 261.216 607.956 262.163 607.956Z" fill="#D6ECFF"/>
<path d="M278.288 607.956C279.234 607.956 280.001 607.189 280.001 606.243C280.001 605.296 279.234 604.529 278.288 604.529C277.341 604.529 276.574 605.296 276.574 606.243C276.574 607.189 277.341 607.956 278.288 607.956Z" fill="#D6ECFF"/>
<path d="M294.424 607.956C295.371 607.956 296.138 607.189 296.138 606.243C296.138 605.296 295.371 604.529 294.424 604.529C293.478 604.529 292.711 605.296 292.711 606.243C292.711 607.189 293.478 607.956 294.424 607.956Z" fill="#D6ECFF"/>
<path d="M310.561 607.956C311.507 607.956 312.274 607.189 312.274 606.243C312.274 605.296 311.507 604.529 310.561 604.529C309.615 604.529 308.848 605.296 308.848 606.243C308.848 607.189 309.615 607.956 310.561 607.956Z" fill="#D6ECFF"/>
<path d="M326.698 607.956C327.644 607.956 328.411 607.189 328.411 606.243C328.411 605.296 327.644 604.529 326.698 604.529C325.751 604.529 324.984 605.296 324.984 606.243C324.984 607.189 325.751 607.956 326.698 607.956Z" fill="#D6ECFF"/>
<path d="M342.834 607.956C343.781 607.956 344.548 607.189 344.548 606.243C344.548 605.296 343.781 604.529 342.834 604.529C341.888 604.529 341.121 605.296 341.121 606.243C341.121 607.189 341.888 607.956 342.834 607.956Z" fill="#D6ECFF"/>
<path d="M229.889 622.581C230.835 622.581 231.602 621.814 231.602 620.868C231.602 619.921 230.835 619.154 229.889 619.154C228.943 619.154 228.176 619.921 228.176 620.868C228.176 621.814 228.943 622.581 229.889 622.581Z" fill="#D6ECFF"/>
<path d="M246.026 622.581C246.972 622.581 247.739 621.814 247.739 620.868C247.739 619.921 246.972 619.154 246.026 619.154C245.08 619.154 244.312 619.921 244.312 620.868C244.312 621.814 245.08 622.581 246.026 622.581Z" fill="#D6ECFF"/>
<path d="M262.163 622.581C263.109 622.581 263.876 621.814 263.876 620.868C263.876 619.921 263.109 619.154 262.163 619.154C261.216 619.154 260.449 619.921 260.449 620.868C260.449 621.814 261.216 622.581 262.163 622.581Z" fill="#D6ECFF"/>
<path d="M278.288 622.581C279.234 622.581 280.001 621.814 280.001 620.868C280.001 619.921 279.234 619.154 278.288 619.154C277.341 619.154 276.574 619.921 276.574 620.868C276.574 621.814 277.341 622.581 278.288 622.581Z" fill="#D6ECFF"/>
<path d="M294.424 622.581C295.371 622.581 296.138 621.814 296.138 620.868C296.138 619.921 295.371 619.154 294.424 619.154C293.478 619.154 292.711 619.921 292.711 620.868C292.711 621.814 293.478 622.581 294.424 622.581Z" fill="#D6ECFF"/>
<path d="M310.561 622.581C311.507 622.581 312.274 621.814 312.274 620.868C312.274 619.921 311.507 619.154 310.561 619.154C309.615 619.154 308.848 619.921 308.848 620.868C308.848 621.814 309.615 622.581 310.561 622.581Z" fill="#D6ECFF"/>
<path d="M326.698 622.581C327.644 622.581 328.411 621.814 328.411 620.868C328.411 619.921 327.644 619.154 326.698 619.154C325.751 619.154 324.984 619.921 324.984 620.868C324.984 621.814 325.751 622.581 326.698 622.581Z" fill="#D6ECFF"/>
<path d="M342.834 622.581C343.781 622.581 344.548 621.814 344.548 620.868C344.548 619.921 343.781 619.154 342.834 619.154C341.888 619.154 341.121 619.921 341.121 620.868C341.121 621.814 341.888 622.581 342.834 622.581Z" fill="#D6ECFF"/>
<path d="M229.889 637.194C230.835 637.194 231.602 636.427 231.602 635.481C231.602 634.535 230.835 633.768 229.889 633.768C228.943 633.768 228.176 634.535 228.176 635.481C228.176 636.427 228.943 637.194 229.889 637.194Z" fill="#D6ECFF"/>
<path d="M246.026 637.194C246.972 637.194 247.739 636.427 247.739 635.481C247.739 634.535 246.972 633.768 246.026 633.768C245.08 633.768 244.312 634.535 244.312 635.481C244.312 636.427 245.08 637.194 246.026 637.194Z" fill="#D6ECFF"/>
<path d="M262.163 637.194C263.109 637.194 263.876 636.427 263.876 635.481C263.876 634.535 263.109 633.768 262.163 633.768C261.216 633.768 260.449 634.535 260.449 635.481C260.449 636.427 261.216 637.194 262.163 637.194Z" fill="#D6ECFF"/>
<path d="M278.288 637.194C279.234 637.194 280.001 636.427 280.001 635.481C280.001 634.535 279.234 633.768 278.288 633.768C277.341 633.768 276.574 634.535 276.574 635.481C276.574 636.427 277.341 637.194 278.288 637.194Z" fill="#D6ECFF"/>
<path d="M294.424 637.194C295.371 637.194 296.138 636.427 296.138 635.481C296.138 634.535 295.371 633.768 294.424 633.768C293.478 633.768 292.711 634.535 292.711 635.481C292.711 636.427 293.478 637.194 294.424 637.194Z" fill="#D6ECFF"/>
<path d="M310.561 637.194C311.507 637.194 312.274 636.427 312.274 635.481C312.274 634.535 311.507 633.768 310.561 633.768C309.615 633.768 308.848 634.535 308.848 635.481C308.848 636.427 309.615 637.194 310.561 637.194Z" fill="#D6ECFF"/>
<path d="M326.698 637.194C327.644 637.194 328.411 636.427 328.411 635.481C328.411 634.535 327.644 633.768 326.698 633.768C325.751 633.768 324.984 634.535 324.984 635.481C324.984 636.427 325.751 637.194 326.698 637.194Z" fill="#D6ECFF"/>
<path d="M342.834 637.194C343.781 637.194 344.548 636.427 344.548 635.481C344.548 634.535 343.781 633.768 342.834 633.768C341.888 633.768 341.121 634.535 341.121 635.481C341.121 636.427 341.888 637.194 342.834 637.194Z" fill="#D6ECFF"/>
<path d="M229.889 651.819C230.835 651.819 231.602 651.052 231.602 650.106C231.602 649.16 230.835 648.393 229.889 648.393C228.943 648.393 228.176 649.16 228.176 650.106C228.176 651.052 228.943 651.819 229.889 651.819Z" fill="#D6ECFF"/>
<path d="M246.026 651.819C246.972 651.819 247.739 651.052 247.739 650.106C247.739 649.16 246.972 648.393 246.026 648.393C245.08 648.393 244.312 649.16 244.312 650.106C244.312 651.052 245.08 651.819 246.026 651.819Z" fill="#D6ECFF"/>
<path d="M262.163 651.819C263.109 651.819 263.876 651.052 263.876 650.106C263.876 649.16 263.109 648.393 262.163 648.393C261.216 648.393 260.449 649.16 260.449 650.106C260.449 651.052 261.216 651.819 262.163 651.819Z" fill="#D6ECFF"/>
<path d="M278.288 651.819C279.234 651.819 280.001 651.052 280.001 650.106C280.001 649.16 279.234 648.393 278.288 648.393C277.341 648.393 276.574 649.16 276.574 650.106C276.574 651.052 277.341 651.819 278.288 651.819Z" fill="#D6ECFF"/>
<path d="M294.424 651.819C295.371 651.819 296.138 651.052 296.138 650.106C296.138 649.16 295.371 648.393 294.424 648.393C293.478 648.393 292.711 649.16 292.711 650.106C292.711 651.052 293.478 651.819 294.424 651.819Z" fill="#D6ECFF"/>
<path d="M310.561 651.819C311.507 651.819 312.274 651.052 312.274 650.106C312.274 649.16 311.507 648.393 310.561 648.393C309.615 648.393 308.848 649.16 308.848 650.106C308.848 651.052 309.615 651.819 310.561 651.819Z" fill="#D6ECFF"/>
<path d="M326.698 651.819C327.644 651.819 328.411 651.052 328.411 650.106C328.411 649.16 327.644 648.393 326.698 648.393C325.751 648.393 324.984 649.16 324.984 650.106C324.984 651.052 325.751 651.819 326.698 651.819Z" fill="#D6ECFF"/>
<path d="M342.834 651.819C343.781 651.819 344.548 651.052 344.548 650.106C344.548 649.16 343.781 648.393 342.834 648.393C341.888 648.393 341.121 649.16 341.121 650.106C341.121 651.052 341.888 651.819 342.834 651.819Z" fill="#D6ECFF"/>
<path d="M229.889 666.446C230.835 666.446 231.602 665.679 231.602 664.733C231.602 663.787 230.835 663.02 229.889 663.02C228.943 663.02 228.176 663.787 228.176 664.733C228.176 665.679 228.943 666.446 229.889 666.446Z" fill="#D6ECFF"/>
<path d="M246.026 666.446C246.972 666.446 247.739 665.679 247.739 664.733C247.739 663.787 246.972 663.02 246.026 663.02C245.08 663.02 244.312 663.787 244.312 664.733C244.312 665.679 245.08 666.446 246.026 666.446Z" fill="#D6ECFF"/>
<path d="M262.163 666.446C263.109 666.446 263.876 665.679 263.876 664.733C263.876 663.787 263.109 663.02 262.163 663.02C261.216 663.02 260.449 663.787 260.449 664.733C260.449 665.679 261.216 666.446 262.163 666.446Z" fill="#D6ECFF"/>
<path d="M278.288 666.446C279.234 666.446 280.001 665.679 280.001 664.733C280.001 663.787 279.234 663.02 278.288 663.02C277.341 663.02 276.574 663.787 276.574 664.733C276.574 665.679 277.341 666.446 278.288 666.446Z" fill="#D6ECFF"/>
<path d="M294.424 666.446C295.371 666.446 296.138 665.679 296.138 664.733C296.138 663.787 295.371 663.02 294.424 663.02C293.478 663.02 292.711 663.787 292.711 664.733C292.711 665.679 293.478 666.446 294.424 666.446Z" fill="#D6ECFF"/>
<path d="M310.561 666.446C311.507 666.446 312.274 665.679 312.274 664.733C312.274 663.787 311.507 663.02 310.561 663.02C309.615 663.02 308.848 663.787 308.848 664.733C308.848 665.679 309.615 666.446 310.561 666.446Z" fill="#D6ECFF"/>
<path d="M326.698 666.446C327.644 666.446 328.411 665.679 328.411 664.733C328.411 663.787 327.644 663.02 326.698 663.02C325.751 663.02 324.984 663.787 324.984 664.733C324.984 665.679 325.751 666.446 326.698 666.446Z" fill="#D6ECFF"/>
<path d="M342.834 666.446C343.781 666.446 344.548 665.679 344.548 664.733C344.548 663.787 343.781 663.02 342.834 663.02C341.888 663.02 341.121 663.787 341.121 664.733C341.121 665.679 341.888 666.446 342.834 666.446Z" fill="#D6ECFF"/>
</g>
</g>
</g>
<defs>
<linearGradient id="paint0_linear_819_18074" x1="622" y1="-211" x2="-102" y2="1277" gradientUnits="userSpaceOnUse">
<stop stop-color="#096CFF"/>
<stop offset="1" stop-color="#054199"/>
</linearGradient>
<clipPath id="clip0_819_18074">
<rect width="684" height="902" rx="8" fill="white"/>
</clipPath>
<clipPath id="clip1_819_18074">
<rect width="726" height="916" fill="white" transform="translate(-20 -6)"/>
</clipPath>
</defs>
</svg>
